<?xml version="1.0" encoding="UTF-8"?>
<svg id="Layer_2" data-name="Layer 2" xmlns="http://www.w3.org/2000/svg" viewBox="0 0 185.17 99.49">
  <defs>
    <style>
      .cls-1 {
        fill: #f6f5f3;
      }

      .cls-2, .cls-3 {
        fill: #fff;
      }

      .cls-3 {
        font-family: Intro-Book, 'Intro Book';
        font-size: 22.2px;
      }

      .cls-4 {
        letter-spacing: -.02em;
      }

      .cls-5 {
        letter-spacing: -.01em;
      }

      .cls-6 {
        letter-spacing: -.01em;
      }

      .cls-7 {
        fill: none;
        stroke: #53e4f4;
        stroke-linecap: round;
        stroke-linejoin: round;
        stroke-width: 5.34px;
      }
    </style>
  </defs>
  <g id="Capa_1" data-name="Capa 1">
    <g>
      <line class="cls-7" x1="20.01" y1="39.5" x2="20.01" y2="67.06"/>
      <line class="cls-7" x1="8.19" y1="55.54" x2="8.19" y2="48.14"/>
      <line class="cls-7" x1="173.56" y1="32.54" x2="173.56" y2="63.74"/>
      <line class="cls-7" x1="161.73" y1="55.54" x2="161.73" y2="43.44"/>
    </g>
    <text class="cls-3" transform="translate(34.64 18.87)"><tspan x="0" y="0">D</tspan><tspan class="cls-6" x="16.25" y="0">e</tspan><tspan class="cls-4" x="28.3" y="0">v</tspan><tspan x="39.74" y="0">ociona</tspan><tspan class="cls-5" x="109.39" y="0">l</tspan></text>
    <g>
      <path class="cls-2" d="M60.52,31.7h2.65v34.42h-7.35v-18.58l-8.63,10.79h-.93l-8.63-10.79v18.58h-7.35V31.7h2.7l13.78,16.33,13.78-16.33Z"/>
      <path class="cls-2" d="M92.19,58.52c0,2.01-.1,3.09,2.26,2.94v4.41c-3.19.69-7.8.93-7.8-3.92-1.32,2.94-4.36,4.56-7.5,4.56-7.31-.15-10.69-5.79-10.69-12.5.25-7.99,5.69-12.21,13.68-12.06,3.48.05,6.91.88,10.05,2.21v14.37ZM85.53,48.13c-1.32-.54-2.75-.69-3.92-.69-3.73,0-6.13,2.06-6.28,6.57,0,3.73,1.77,6.47,5.3,6.42,3.28,0,4.76-2.6,4.9-6.18v-6.13Z"/>
      <path class="cls-2" d="M97.59,42.39c3.48-.64,9.02-.98,9.02,3.58,1.52-2.8,4.31-4.02,7.45-4.02,6.67,0,9.46,4.56,9.32,10.44v6.42c0,2.21.1,3.28,2.5,3.14v4.02c-4.66,1.18-9.32.59-9.32-5.3v-8.29c.05-3.28-2.06-5-4.56-5-2.55-.15-4.95,1.86-4.95,5.15v13.58h-6.86v-16.33c0-2.6.05-3.53-2.6-3.38v-4.02Z"/>
      <path class="cls-2" d="M152.65,58.52c0,2.01-.1,3.09,2.26,2.94v4.41c-3.19.69-7.8.93-7.8-3.92-1.32,2.94-4.36,4.56-7.5,4.56-7.31-.15-10.69-5.79-10.69-12.5.25-7.99,5.69-12.21,13.68-12.06,3.48.05,6.91.88,10.05,2.21v14.37ZM145.98,48.13c-1.32-.54-2.75-.69-3.92-.69-3.73,0-6.13,2.06-6.28,6.57,0,3.73,1.77,6.47,5.3,6.42,3.29,0,4.76-2.6,4.9-6.18v-6.13ZM138.92,38.42v-.64l3.48-7.16,5.88,2.16v.54l-4.12,5.1h-5.25Z"/>
    </g>
    <path class="cls-1" d="M182.63,94.27h-85.29c2.73-6.49,9.16-11.06,16.63-11.06h63.27l-2.55-5.22h-60.72c-9.58,0-17.82,5.82-21.38,14.11-3.56-8.29-11.8-14.11-21.38-14.11H10.49l-2.55,5.22h63.27c7.47,0,13.9,4.57,16.63,11.06H2.55l-2.55,5.22h185.17l-2.55-5.22Z"/>
  </g>
</svg>