<svg xmlns="http://www.w3.org/2000/svg" class="mana-history-map-art" viewBox="0 0 1120 620" width="1120" height="620" aria-hidden="true"> <defs><style><![CDATA[.mana-map-grid-dot{fill:#3fa7bb;opacity:.82}.mana-world-land-soft{fill:#d8e8f0;opacity:.22}.mana-world-dot-field{fill:url(#mana-history-dot-grid);opacity:.96}.mana-world-outline{fill:none;stroke:#25839a;stroke-width:1.55;opacity:.54}.mana-map-route{fill:none;stroke:#25839a;stroke-width:6;stroke-linecap:round;stroke-linejoin:round;opacity:.86}.mana-map-label-line{fill:none;stroke:#25839a;stroke-width:2.6;stroke-linecap:round;opacity:.76}.mana-map-city-dot{fill:#25839a;stroke:#ffffff;stroke-width:2;filter:url(#mana-map-glow)}.mana-flag-object{overflow:visible}.mana-flag-pin{display:inline-flex;align-items:center;gap:12px;height:48px;padding:0 17px 0 9px;border:1px solid rgba(32,45,99,.14);border-radius:999px;background:rgba(255,255,255,.9);box-shadow:0 18px 42px rgba(32,45,99,.16);color:#202d63;font-family:Intro,Arial,sans-serif;font-size:15px;font-weight:800;letter-spacing:.02em}.mana-flag{display:inline-block;width:32px;height:32px;border-radius:50%;box-shadow:inset 0 0 0 1px rgba(32,45,99,.18),0 2px 8px rgba(32,45,99,.12)}.mana-flag--uk{background:linear-gradient(45deg,transparent 31%,#fff 31% 39%,#c8102e 39% 45%,#fff 45% 53%,transparent 53%),linear-gradient(-45deg,transparent 31%,#fff 31% 39%,#c8102e 39% 45%,#fff 45% 53%,transparent 53%),linear-gradient(90deg,transparent 36%,#fff 36% 64%,transparent 64%),linear-gradient(0deg,transparent 35%,#fff 35% 65%,transparent 65%),linear-gradient(90deg,transparent 43%,#c8102e 43% 57%,transparent 57%),linear-gradient(0deg,transparent 42%,#c8102e 42% 58%,transparent 58%),#012169;background-size:100% 100%}.mana-flag--co{background:linear-gradient(#f6d34a 0 50%,#21468b 50% 75%,#c9323d 75% 100%)}}]]></style> <pattern id="mana-history-dot-grid" width="10" height="10" patternUnits="userSpaceOnUse"> <circle class="mana-map-grid-dot" cx="4" cy="4" r="2.35"></circle> </pattern> <filter id="mana-map-glow" x="-30%" y="-30%" width="160%" height="160%"> <feGaussianBlur stdDeviation="5" result="blur"></feGaussianBlur> <feMerge> <feMergeNode in="blur"></feMergeNode> <feMergeNode in="SourceGraphic"></feMergeNode> </feMerge> </filter> <path id="mana-history-land-shape" d="M436.821,575.845L437.043,577.102L437.2,578.193L432.683,577.863L428.218,578.006L425.047,577.197L424.976,577.102L423.317,576.378L428.024,576.474L432.634,576.716L433.485,575.697L434.01,574.814ZM228.487,574.479L225.076,574.826L220.847,573.933L218.125,573.025L217.793,572.872L215.284,572.161L215.029,571.187L219.605,571.6L222.985,572.416L226.042,573.33ZM464.3,570.723L467.387,571.857L468.975,573.43L469.712,574.527L470.383,575.807L467.565,576.587L464.538,577.21L460.998,577.781L456.99,578.254L452.068,578.112L448.879,577.305L448.631,576.295L452.651,575.613L453.978,574.775L454.712,573.682L455.18,572.723L456.005,571.803L456.868,570.723L457.944,570.723L460.853,570.154ZM290.133,558.17L293.434,558.62L295.622,558.117L295.299,559.123L293.909,559.85L290.614,559.624L287.424,558.62L286.99,557.666ZM280.398,558.117L284.896,559.234L283.477,559.123L280.33,558.843L276.5,558.059L277.512,557.443ZM336.192,553.641L338.969,554.04L341.192,553.7L343.718,555.348L341.795,555.122L339.15,555.235L336.287,555.122L333.373,555.294L330.642,554.724L328.534,553.527L329.56,553.013L332.74,553.413ZM403.766,550.777L404.704,552.101L404.887,553.245L404.828,554.331L402.392,554.729L400.177,555.299L397.2,555.245L397.681,554.104L395.243,554.503L392.95,554.901L390.747,554.045L389.942,552.844L391.803,551.698L393.171,551.35L395.865,551.464L395.747,549.962L395.308,548.864L394.027,546.469L394.634,545.059L396.542,544.586L398.322,545.704L399.413,546.818L401.077,548.165L402.473,549.441ZM213.669,586.261L213.669,586.261L213.669,586.261L213.834,586.277L211.888,585.145L217.314,585.761L217.317,585.692L217.35,585.53L217.375,585.326L217.409,585.152L217.431,585.064L217.729,585.067L218.033,585.101L223.366,585.918L223.312,585.101L223.414,584.986L228.122,584.63L231.322,585.101L232.927,585.34L237.787,585.987L244.762,586.472L250.93,587.05L259.681,587.472L263.57,586.979L272.79,587.334L279.132,587.883L282.502,587.367L286.343,586.871L284.34,585.987L276.54,585.912L269.067,585.453L265.421,584.671L259.075,584.227L257.167,583.282L255.902,582.393L254.887,581.569L252.591,580.639L247.991,580.007L244.85,579.18L240.303,578.436L245.517,578.578L249.545,578.201L253.93,578.996L256.308,578.299L258.127,577.399L258.427,576.583L256.065,575.562L252.305,574.873L248.091,574.127L243.568,573.976L239.262,573.625L234.809,573.374L231.958,572.412L227.988,571.595L224.942,570.67L219.859,567.626L221.285,567.892L224.41,568.736L227.555,568.472L230.441,568.102L233.811,569.262L236.833,568.999L238.891,568.422L240.585,567.681L241.837,566.775L244.746,566.507L243.368,565.487L241.328,564.46L240.761,563.482L242.992,562.991L245.388,563.915L248.076,563.374L249.763,562.66L252.827,562.603L255.476,562.333L257.701,561.672L259.391,561.062L261.402,560.454L263.317,560.622L265.063,560.842L267.937,560.454L271.404,560.952L274.372,560.899L276.861,560.512L280.12,560.785L283.688,561.062L286.64,560.952L289.895,561.009L293.223,561.062L296.139,560.952L297.589,560.119L299.858,559.677L303.206,560.287L305.38,559.787L306.866,558.785L309.097,559.677L310.781,560.675L313.066,561.615L314.597,560.785L318.171,561.834L321.433,562.167L324.649,562.934L327.592,562.769L329.956,562.276L333.35,562.385L336.641,562.769L340.054,563.26L340.216,562.058L338.024,561.119L336.13,560.119L333.092,559.898L330.966,558.838L329.623,557.773L327.12,555.627L329.155,556.024L332.227,556.195L334.993,556.024L337.98,556.478L340.904,557.326L342.63,558.335L345.77,558.504L348.352,558.112L350.995,557.549L353.498,557.209L356.254,557.884L359.066,557.661L359.472,555.461L362.166,556.761L365.094,557.268L367.704,556.985L370.286,558.112L373.285,558.224L376.203,558.558L379.257,559.176L380.323,558.112L380.554,557.097L383.487,558.224L386.369,557.943L389.009,558.558L391.103,559.508L393.888,559.229L395.831,558.616L397.678,557.884L400.162,557.491L403.129,557.156L405.766,556.761L407.633,556.141L408.479,555.23L408.371,553.981L407.504,552.775L406.219,551.628L404.839,550.472L403.549,549.316L402.444,548.266L401.74,547.101L401.393,545.927L401.942,544.809L402.269,543.571L402.086,542.389L401.013,541.079L400.189,539.884L400.718,538.508L401.611,537.611L402.645,536.466L403.853,535.495L405.385,534.59L405.762,533.253L406.724,532.4L407.908,531.604L410.157,531.425L411.281,530.442L412.753,529.832L414.602,529.461L416.067,528.665L417.076,527.675L418.856,527.307L420.579,528.111L420.056,529.153L417.926,530.076L417.134,530.749L415.152,530.262L413.275,530.569L411.909,531.303L410.469,532.095L409.661,533.011L409.829,534.224L410.451,535.375L411.992,536.403L410.666,537.127L408.534,537.366L407.667,538.389L406.696,539.347L405.803,540.663L405.939,541.794L407.329,543.039L408.993,543.984L411.231,544.692L413.425,545.633L414.9,546.808L415.895,547.918L417.099,549.085L418.614,550.067L419.783,551.165L421.326,553.863L422.484,554.946L423.192,556.083L424.422,557.209L424.837,558.727L424.191,559.898L423.362,560.842L420.623,561.229L420.147,562.219L419.307,563.152L416.58,564.188L413.927,564.623L411.55,565.217L408.972,565.812L407.926,566.937L404.535,567.043L400.676,566.937L397.398,567.148L393.772,567.148L395.175,568.212L398.768,568.686L401.661,569.42L403.638,570.356L401.854,571.183L398.019,570.924L395.493,571.595L396.181,572.666L396.889,573.677L400.018,574.522L401.227,575.46L404.618,576.387L409.298,576.774L413.542,577.445L417.094,578.201L421.423,578.952L426.766,579.319L432.243,579.96L436.219,580.639L440.562,581.395L443.375,582.438L445.035,583.242L446.791,582.478L449.554,581.833L452.515,581.127L456.286,580.549L459.468,579.917L464.465,579.869L469.593,580.187L473.959,580.728L474.723,579.731L477.188,579.044L482.298,578.996L486.099,578.485L489.718,577.965L493.839,577.634L498.218,577.206L501.197,576.583L499.463,575.706L498.297,574.822L498.006,573.876L493.986,573.976L489.834,574.376L485.754,574.376L484.827,573.426L484.439,571.493L485.197,570.924L488.026,570.307L491.416,569.682L493.775,568.895L496.153,568.102L497.818,567.043L500.648,566.563L503.482,566.188L504.912,565.97L508.237,565.863L511.342,565.487L513.919,564.946L516.442,564.295L518.729,563.642L521.634,562.769L523.437,561.834L525.396,561.009L525.909,559.898L523.48,559.229L524.113,558.054L525.489,557.156L527.742,556.59L530.131,555.911L532.332,555.005L533.991,553.863L534.985,552.493L536.573,551.683L539.297,551.857L540.473,552.835L543.189,552.948L543.219,551.857L544.323,550.707L546.793,550.996L547.421,552.091L550.134,552.259L553.066,551.743L555.912,551.4L558.496,551.569L559.482,552.775L561.978,551.802L564.303,551.28L566.896,550.876L569.454,550.472L571.808,549.777L574.384,549.316L576.398,548.673L577.846,547.626L579.518,548.387L581.93,547.979L583.502,549.371L584.715,550.417L587.365,549.837L588.5,548.673L590.919,547.858L593.928,548.034L594.702,549.14L596.721,548.034L599.241,547.687L601.961,547.571L604.394,547.626L606.915,547.979L609.375,548.15L610.296,549.14L611.64,550.012L614.233,549.491L616.953,549.371L619.553,549.371L622.122,549.316L624.5,548.909L627.004,548.558L629.207,547.742L631.488,547.217L633.907,546.924L635.861,546.104L637.514,544.458L639.076,543.453L641.381,543.928L642.034,544.988L643.853,545.694L646.327,545.46L647.682,546.515L649.187,547.278L651.737,546.575L652.919,545.282L655.16,544.754L657.875,543.749L660.282,543.336L663.205,542.742L665.243,542.092L667.392,541.378L669.443,540.724L671.539,541.079L674.009,540.008L675.816,539.171L678.018,539.228L680.213,538.508L681.043,537.429L683.336,536.586L685.502,535.981L688.062,535.495L690.35,535.255L692.383,535.438L694.523,535.741L696.118,536.586L695.844,537.906L697.537,538.928L698.634,539.765L701.307,540.126L702.532,540.961L704.12,541.794L706.289,541.974L708.43,541.378L711.008,540.126L712.933,540.781L715.074,541.141L717.12,541.496L719.309,541.732L721.649,541.732L722.063,544.871L721.596,545.633L720.654,546.985L718.071,547.742L715.722,548.849L715.463,550.012L718.047,549.952L717.149,551.111L715.439,552.205L713.759,553.408L715.014,554.321L717.471,554.606L720.35,554.094L722.208,552.948L723.541,551.857L725.286,550.936L727.179,550.067L728.311,549.025L730.298,547.571L731.898,547.278L734.589,547.157L737.081,546.808L739.696,546.337L741.476,545.165L742.777,544.045L744.99,542.921L747.709,542.148L750.012,541.558L751.871,540.544L753.502,540.008L755.487,539.528L757.671,539.827L759.967,539.528L762.487,539.171L764.979,539.347L767.185,538.508L769.6,536.466L769.986,537.309L770.245,538.752L771.878,539.347L773.991,539.59L776.486,539.228L778.744,539.466L780.924,539.528L782.595,539.228L784.47,539.409L785.846,540.065L788.243,539.646L790.793,539.646L793.24,539.228L795.416,539.646L797.681,538.627L799.573,537.611L801.781,536.763L806.325,534.47L807.579,534.894L808.822,535.741L809.655,536.825L811.36,538.689L813.633,538.752L815.814,538.752L818.629,538.389L821.491,537.969L824.073,537.127L826.374,536.221L829.125,536.101L831.401,535.438L832.817,536.044L833.29,537.007L834.223,537.969L836.922,537.849L837.93,538.627L840.133,539.409L842.849,539.708L845.496,539.466L848.137,538.508L850.504,537.548L852.839,537.309L854.636,537.73L856.844,538.031L859.481,537.548L861.619,537.548L863.455,537.849L865.381,538.15L867.985,537.611L870.965,537.127L873.493,537.007L876.198,537.007L878.652,536.706L881.018,536.466L883.025,534.952L884.249,533.678L884.997,534.528L884.171,535.918L883.808,537.189L883.859,538.207L885.352,538.752L888.205,538.57L891.376,538.508L893.68,538.327L896.785,538.327L899.075,538.27L902.065,538.389L904.475,538.627L905.194,539.59L903.606,540.724L904.228,541.614L906.028,542.327L907.846,543.101L910.32,543.632L912.974,544.101L914.842,544.575L917.414,544.636L920.005,543.632L921.168,544.458L921.913,545.399L923.179,546.104L925.659,546.398L927.938,546.747L927.734,547.918L929.545,548.618L930.078,549.662L932.083,550.127L934.797,550.067L937.049,550.242L939.854,550.182L942.301,550.417L944.352,550.821L945.855,551.514L947.497,552.091L948.001,552.948L946.271,554.094L943.756,555.117L941.049,556.42L938.922,557.438L936.31,558.616L932.802,559.065L930.168,560.066L926.49,560.675L924.011,561.782L921.093,562.826L918.316,563.699L915.837,564.839L913.852,565.863L911.878,567.093L910.456,568.102L910.105,569.158L909.057,570.15L908.604,571.08L911.968,571.44L910.965,572.565L906.507,572.973L902.395,573.526L898.255,573.625L894.085,575.07L891.685,576.244L889.164,577.16L886.417,578.063L887.621,578.856L886.72,579.826L886.677,580.681L887.476,581.436L888.656,582.137L890.022,582.82L892.864,583.491L891.145,584.509L895.517,584.948L895.441,585.101L895.126,585.685L902.023,585.182L904.529,585.8L906.331,586.261L887.362,590.549L863.06,592.925L560,592.925L256.94,592.925L232.638,590.549ZM382.726,496.607L386.817,498.621L390.749,499.453L390.154,501.125L387.747,501.288L386.017,500.115L385.635,501.463L383.789,502.493L380.847,502.116L378.595,501.119L375.697,500.634L371.72,498.768L368.385,496.971L363.354,493.198L365.787,493.907L370.305,496.158L374.223,497.362L375.011,495.822L375.041,493.513L376.985,492.117L379.003,492.518L380.543,494.084ZM404.107,487.302L406.66,488.834L406.202,490.024L402.921,491.04L401.383,489.852L399.585,491.378L397.805,489.852L400.391,487.815L402.894,488.667ZM748.7,482.551L744.502,482.772L745.01,480.947L745.85,479.527L746.253,478.821L747.655,479.905L750.071,480.336L749.949,480.988ZM968.838,451.464L970.919,452.682L972.702,452.199L975.255,451.524L976.811,451.757L974.74,455.944L973.114,457.153L971.229,459.984L970.803,459.021L967.482,461.468L967.021,461.278L965.377,461.165L965.344,458.165L966.231,455.843L966.253,452.772L967.167,451.154ZM1046.233,451.912L1045.956,453.369L1048.855,451.942L1048.726,453.428L1047.776,454.913L1045.683,456.546L1042.157,459.134L1039.794,460.548L1039.688,462.233L1037.525,462.275L1034.256,463.597L1031.94,465.887L1027.917,469.41L1024.65,470.965L1022.58,471.959L1020.117,471.882L1019.154,470.741L1016.352,470.494L1016.786,469.216L1020.032,466.631L1025.819,463.182L1028.041,462.524L1030.922,461.189L1034.512,459.348L1037.369,457.528L1040.286,454.902L1041.916,454.013L1043.561,452.044L1046.543,450.413ZM1060.57,435.04L1060.585,438.779L1061.986,436.357L1062.747,437.325L1061.653,440.01L1063.288,441.163L1065.047,441.451L1067.455,440.094L1068.661,440.509L1066.121,443.653L1064.007,445.721L1061.889,445.649L1060.484,446.721L1059.816,448.242L1058.992,448.9L1056.735,450.807L1053.807,453.22L1050.743,454.627L1050.852,453.703L1050.005,453.196L1053.449,450.293L1053.727,448.343L1051.54,446.931L1052.386,445.649L1055.167,444.414L1057.237,441.685L1058.411,439.392L1058.575,437.012L1059.001,436.387L1058.427,434.92L1057.841,431.773L1057.924,429.256L1059.144,428.979L1059.697,430.954L1061.454,431.875ZM1059.442,385.188L1058.052,386.044L1056.699,385.08L1055.033,383.477L1053.649,381.592L1052.363,379.088L1052.28,377.878L1053.551,377.932L1054.907,379.142L1055.888,380.346L1056.566,381.346L1058.382,383.55ZM1097.992,368.048L1098.774,369.076L1097.795,370.928L1095.801,371.415L1094.258,370.976L1094.369,369.413L1095.839,368.192L1097.095,368.637ZM1103.587,365.264L1101.452,366.136L1099.346,366.881L1099.277,365.559L1100.962,364.831L1101.966,364.633L1104,363.527L1103.587,365.264ZM16,363.527L16,363.527L16.582,363.365L16.616,365.072L16.412,365.264L16.412,365.264L16.413,365.264L16,363.527ZM1066.956,364.946L1065.85,365.414L1065.184,363.858L1065.499,362.908ZM1065.88,359.508L1065.777,362.367L1065.055,361.923L1064.383,362.115L1064.163,361.136L1064.647,358.414ZM711.816,354.613L712.062,358.883L712.746,360.541L712.334,362.247L711.733,363.293L710.842,361.208L710.199,362.259L710.605,364.891L710.244,366.394L709.351,367.218L708.944,370.224L707.456,374.369L705.589,379.268L703.166,386.013L701.58,390.961L699.851,395.091L697.354,395.935L694.614,397.442L692.993,396.532L690.76,395.259L690.104,393.378L690.184,390.22L689.367,387.381L689.291,384.821L690.027,382.255L691.453,381.641L691.553,380.454L693.187,377.763L693.619,375.494L693.033,373.81L692.619,371.572L692.578,368.3L693.754,366.31L694.301,364.056L695.809,363.924L697.539,363.197L698.697,362.554L700.028,362.512L701.866,360.487L704.487,358.3L705.491,356.516L705.157,354.997L706.423,355.424L708.223,352.962L708.396,350.825L709.479,349.241L710.454,350.765L711.187,352.272ZM995.285,355.352L995.919,358.138L998.095,356.799L998.846,358.3L1000.055,359.688L999.459,361.262L999.545,364.302L999.656,366.076L1000.331,366.508L1000.522,369.545L999.835,371.391L1000.278,373.798L1003.108,375.657L1004.837,377.348L1006.469,378.895L1005.855,379.756L1007.001,381.99L1007.138,385.839L1008.546,385.056L1009.337,386.598L1010.22,386.05L1009.666,389.822L1011.131,392.01L1012.1,393.372L1013.519,396.254L1013.423,399.119L1012.818,401.152L1011.863,403.353L1012.196,406.382L1010.874,409.537L1009.747,411.19L1007.737,414.37L1006.995,416.415L1005.391,418.966L1002.761,422.211L999.882,423.959L997.632,426.719L995.894,428.479L993.67,431.55L991.755,433.319L989.797,435.978L988.265,438.424L987.867,439.548L985.636,440.779L982.383,440.911L979.043,442.363L977.07,443.737L974.6,445.259L973.026,443.689L971.591,443.065L972.917,441.217L971.039,441.889L967.32,444.456L965.33,443.497L963.982,442.933L962.475,442.681L960.2,441.655L959.364,439.47L960.034,436.772L960.157,434.98L959.362,433.536L956.783,433.109L958.447,431.381L958.834,428.744L956.419,431.201L953.589,431.857L955.909,429.888L957.173,427.834L958.977,426.093L959.775,423.453L956.238,426.49L953.948,427.708L951.714,430.538L950.049,429.075L950.885,427.189L950.067,424.604L949.033,423.272L949.884,422.446L946.946,420.287L944.94,420.185L942.751,418.454L937.409,418.792L933.207,420.064L929.477,421.252L926.784,421.017L923.079,422.844L920.276,423.67L919.072,425.532L917.487,426.979L914.999,427.069L913.078,427.382L910.744,426.738L908.538,427.123L906.495,427.286L904.118,429.183L903.332,429.027L901.526,430.033L899.75,431.158L897.695,431.02L895.767,431.02L893.486,428.75L892.167,428.069L892.905,426.032L894.503,425.544L895.257,424.737L895.567,423.459L896.712,420.981L897.045,418.87L896.589,415.263L896.71,413.23L897.417,411.203L896.892,408.88L897.106,407.83L896.185,406.412L896.548,403.619L895.583,400.802L895.544,399.282L896.462,400.82L896.281,397.515L897.493,398.546L898.038,399.927L898.434,398.1L897.63,395.296L897.613,394.174L897.162,393.107L897.956,391.051L898.751,390.171L899.546,388.394L899.677,386.309L901.431,383.748L901.097,386.459L902.874,384.014L905.54,382.821L907.312,381.303L909.858,379.997L911.272,379.72L912.016,380.159L914.642,378.835L916.534,378.438L917.139,377.661L918.002,377.336L919.639,377.42L922.998,376.379L924.934,374.802L926.059,372.901L928.155,371.096L928.55,369.677L928.961,367.747L931.574,364.729L932.33,367.795L933.745,367.086L932.952,365.408L934.18,363.683L935.382,364.453L936.184,361.754L938.11,360.006L939.05,358.607L940.666,358L940.854,357.009L942.125,357.423L942.308,356.534L943.712,356.024L945.243,355.544L947.245,357.171L948.618,359.273L950.5,359.297L952.377,359.634L952.033,357.682L953.901,354.841L955.408,353.911L955.05,353.028L956.645,350.999L958.645,349.751L960.143,350.171L962.789,349.505L962.963,347.693L960.872,346.523L962.554,346.007L964.463,346.889L965.902,348.341L968.346,349.247L969.257,348.887L970.995,349.979L972.901,348.965L974.009,349.271L974.809,348.593L975.965,350.345L974.892,352.242L973.539,353.676L972.473,353.796L972.612,355.213L971.457,356.985L970.101,358.733L970.157,359.73L972.235,361.694L974.367,362.83L975.705,364.056L977.502,366.16L978.351,366.154L979.754,367.062L980.007,368.162L982.645,369.364L984.874,368.15L985.843,366.244L986.751,364.669L987.48,362.722L988.904,359.898L988.769,358.18L989.157,357.153L989.132,355.117L989.942,352.446L990.627,351.725L990.327,350.543L991.319,348.665L992.147,346.715L992.352,345.707L993.656,344.375L994.294,346.109L994.209,348.335L994.917,348.761L994.829,350.255L995.671,352.056L995.596,354.067ZM1053.393,343.721L1054.078,344.939L1051.957,344.915L1051.092,342.737L1052.797,343.589ZM927.47,342.857L926.182,342.923L922.384,340.44L925.287,339.745L926.789,340.824L927.75,341.904ZM1049.821,341.556L1048.626,341.64L1046.808,341.28L1046.24,340.734L1046.597,339.325L1048.537,339.883L1049.444,340.626ZM1052.464,340.59L1051.921,341.244L1050.033,338.174L1049.642,336.057L1050.674,336.057L1051.452,338.893ZM938.838,342.503L936.15,343.283L935.832,342.857L936.226,341.652L937.737,339.493L940.882,338.084L941.306,337.25L943.998,336.453L946.137,336.333L947.13,335.89L948.245,336.333L947.042,337.292L943.731,338.839L941.081,339.859ZM919.559,335.26L920.583,336.207L922.494,335.92L923.129,337.424L919.547,338.138L917.39,338.611L915.757,338.581L916.967,336.543L918.649,336.513ZM934.82,335.26L934.208,337.226L929.545,338.234L925.523,337.796L925.63,336.501L928.105,335.764L929.928,336.825L931.981,336.555ZM1047.484,336.117L1047.539,336.831L1045.306,335.326L1043.765,334.055L1042.737,332.874L1043.221,332.515L1044.546,333.366L1046.888,334.996ZM1040.707,332.617L1040.073,332.814L1038.818,332.011L1037.692,330.555L1037.896,329.962L1039.592,331.46ZM891.567,330.597L897.403,330.95L898.16,329.488L903.717,331.19L904.676,333.486L909.211,334.133L912.798,336.237L909.212,337.586L905.965,336.159L903.203,336.255L900.061,335.991L897.253,335.356L893.812,334.007L891.595,333.654L890.292,334.097L884.829,332.641L884.394,331.118L881.607,330.855L883.889,327.475L887.584,327.684L889.973,329.069L891.222,329.338ZM971.389,328.601L969.647,331.01L969.537,328.344L970.157,327.073L970.867,325.875L971.497,326.911ZM1035.808,330.747L1034.921,331.1L1033.716,329.74L1032.548,327.493L1032.083,324.796L1032.522,324.455L1032.785,325.503L1033.655,326.306L1034.975,328.553L1036.319,329.752ZM1024.273,325.995L1022.648,326.282L1022.096,327.277L1020.363,328.14L1018.74,328.967L1017.114,328.961L1014.683,327.936L1013.015,326.947L1013.34,325.851L1016.045,326.366L1017.735,326.091L1018.304,324.395L1018.749,324.305L1018.927,326.186L1020.682,325.917L1021.617,324.706L1023.398,323.442L1023.181,321.357L1025.01,321.292L1025.597,321.873L1025.432,323.832ZM949.036,318.847L947.849,320.022L945.76,319.375L945.217,317.853L948.316,317.679ZM958.931,317.553L959.945,320.261L957.425,318.799L954.882,318.506L953.146,318.74L951.037,318.614L951.814,316.667L955.605,316.523ZM1028.015,322.532L1027.004,323.472L1026.546,321.387L1025.897,320.016L1024.562,318.859L1022.882,317.35L1020.717,316.308L1021.591,315.451L1023.211,316.445L1024.218,317.224L1025.474,318.075L1026.633,319.56L1027.747,320.692ZM970.315,310.683L971.054,316.403L974.143,318.524L976.812,314.768L980.371,312.636L983.091,312.63L985.686,313.864L987.923,315.134L991.184,315.81L996.409,318.248L1001.972,320.273L1003.998,322.082L1005.597,323.862L1005.944,325.953L1010.875,328.14L1011.482,330.016L1008.638,330.399L1009.124,332.754L1011.635,335.08L1013.228,338.839L1014.985,338.719L1014.689,340.29L1016.978,340.89L1015.979,341.556L1019.031,343.049L1018.572,344.075L1016.525,344.321L1015.885,343.403L1013.326,343.007L1010.312,342.473L1008.206,340.213L1006.685,338.264L1005.413,335.164L1001.58,333.612L998.908,334.625L996.933,335.794L997.059,338.408L994.539,339.625L992.902,339.031L989.758,338.881L987.333,335.973L984.302,335.266L983.452,336.273L979.578,336.381L981.128,333.498L983.132,332.515L982.63,328.667L981.347,325.695L975.592,322.699L973.088,322.4L968.639,319.129L967.668,320.848L966.477,321.16L965.837,319.866L965.884,318.326L963.607,316.589L966.934,315.313L969.112,315.379L968.882,314.445L964.401,314.439L963.233,312.33L960.512,311.678L959.246,309.923L963.372,309.066L964.942,307.916L969.844,309.366ZM943.071,301.579L940.648,305.095L938.348,305.772L935.406,305.083L930.308,305.257L927.633,305.766L927.2,308.443L929.902,311.594L931.572,309.988L937.285,308.785L937.03,310.414L935.702,309.899L934.345,311.977L931.624,313.349L934.407,317.883L933.817,319.099L936.392,323.185L936.256,325.509L934.572,326.546L933.44,325.306L935.052,322.406L931.986,323.778L931.272,322.795L931.727,321.429L929.604,319.357L929.939,315.906L927.863,316.978L927.987,321.106L927.874,326.174L925.911,326.684L924.657,325.647L925.679,322.388L925.336,318.973L924.049,318.949L923.174,316.523L924.495,314.205L924.982,311.396L926.544,306.059L927.177,304.604L929.763,301.975L932.165,303.017L936.023,303.508L939.535,303.358L942.53,300.789ZM953.633,302.598L953.49,305.694L951.914,305.347L951.453,307.497L952.698,309.366L951.836,309.791L950.616,307.551L949.696,303.029L950.272,300.202L951.259,298.914L951.516,300.843L953.327,301.154ZM883.182,327.319L879.792,327.391L877.353,324.431L873.547,321.543L872.306,319.398L870.07,316.517L868.603,313.864L866.322,308.91L863.64,305.958L862.734,302.915L861.568,300.154L858.778,297.926L857.114,294.895L854.759,292.918L851.436,289.012L851.101,287.214L853.064,287.358L857.821,288.041L860.656,291.498L863.097,293.9L864.82,295.374L867.796,299.178L870.913,299.231L873.513,301.657L875.309,304.622L877.637,306.239L876.408,309.126L878.15,310.354L879.25,310.444L879.738,312.911L880.772,314.888L883.012,315.199L884.446,317.44L883.538,321.843ZM920.52,300.142L923.997,303.412L920.378,303.831L919.364,306.245L919.485,309.449L916.519,311.869L916.377,315.397L915.036,320.806L914.629,319.548L911.095,321.142L909.96,318.979L907.787,318.775L906.291,317.643L902.621,318.913L901.558,317.206L899.55,317.398L897.04,316.99L896.661,312.241L895.154,311.258L893.702,308.234L893.284,305.137L893.611,301.855L895.393,299.507L897.659,300.717L900.005,300.058L900.561,297.063L901.855,296.392L905.5,295.626L907.601,292.828L909.023,290.587L910.176,289.263L912.679,287.328L914.9,284.865L916.27,282.097L917.5,282.085L919.184,283.877L919.417,285.417L921.484,286.405L924.08,287.466L923.929,288.856L921.891,289.03L922.519,290.761L920.312,291.965L918.684,295.158L921.017,298.513ZM945.32,276.822L945.82,279.172L946.146,281.162L945.333,284.398L943.966,280.79L942.664,282.588L943.811,285.195L943.039,286.855L939.323,284.8L938.3,282.235L939.104,280.556L937.044,278.878L936.2,280.347L934.751,280.209L932.638,282.187L932.061,281.15L933.036,278.165L934.877,277.17L936.422,275.833L937.633,277.439L939.879,276.468L940.234,274.885L942.377,274.795L941.943,272.055L944.572,273.734L944.987,275.515ZM808.005,284.674L805.377,285.483L803.811,282.666L803.029,277.577L804.08,271.827L806.306,273.794L807.866,276.288L809.532,279.981L809.239,283.667ZM374.48,270.814L371.918,271.203L371.386,270.885L372.323,269.908L372.331,268.51L374.108,268.048L374.736,268.174ZM937.407,270.214L936.428,271.383L935.688,273.62L934.828,274.669L932.727,272.217L933.26,271.269L933.928,270.28L934.028,268.078L935.681,267.868L935.449,270.256L937.33,266.836ZM921.046,273.626L917.278,276.99L918.566,274.508L920.566,272.325L922.162,269.872L923.395,266.35L924.236,269.242L922.422,271.191ZM930.397,264.496L932.34,265.594L934.277,265.588L934.389,267.07L933.139,268.576L931.322,269.644L931.04,267.994L931.061,266.188ZM941.276,263.536L942.593,267.496L940.144,266.554L940.333,267.748L941.311,269.932L939.947,270.73L939.564,268.234L938.624,268.048L937.914,265.906L939.73,266.188L939.53,264.844L937.352,262.138L940.269,262.216ZM928.805,260.325L928.374,263.386L926.858,261.616L924.964,258.914L927.58,259.046ZM925.194,241.03L927.231,242.04L927.985,241.12L928.431,242.022L928.195,243.496L929.667,246.039L929.361,248.991L927.764,250.169L927.732,253.029L928.817,255.858L930.475,256.248L931.757,255.828L935.819,257.797L935.784,259.725L936.89,260.577L936.781,262.21L934.199,260.469L932.829,258.608L932.226,259.911L930.01,257.785L927.319,258.308L925.708,257.527L925.66,256.062L926.482,255.155L925.46,254.338L925.249,255.618L923.464,253.575L922.791,252.031L922.147,248.63L923.55,249.802L922.954,244.241L923.362,241.024ZM362.469,242.01L361.613,242.906L359.348,242.882L357.568,243.009L357.545,241.487L358.031,240.97L360.489,240.988L361.997,241.3ZM328.261,243.285L327.283,243.881L325.655,243.309L324.078,242.016L324.541,241.204L325.827,240.958L326.507,241.078L328.496,241.397L329.993,242.251L330.384,243.219ZM342.082,236.168L344.623,236.728L345.06,236.12L347.404,236.138L349.084,237.053L349.883,236.962L350.285,238.22L351.937,238.154L351.725,239.213L353.054,239.339L354.391,240.645L353.127,242.088L351.775,241.319L350.383,241.469L349.403,241.3L348.794,241.944L347.621,242.167L347.246,241.3L346.195,241.812L344.739,244.247L344.026,243.682L343.981,242.66L342.038,242.058L340.592,242.305L338.787,242.046L337.306,242.708L335.811,241.601L336.199,240.458L338.918,240.952L341.163,241.234L342.332,240.446L341.128,238.906L341.305,237.546L339.477,236.992L340.263,236.011ZM892.029,240.41L889.709,242.119L887.059,241.018L886.46,237.955L887.662,236.348L890.77,235.349L892.503,235.434L893.417,236.794L892.372,238.358ZM92.296,238.966L91.709,239.562L91.083,239.056L91.411,238.064L91.236,236.764L91.485,236.373L92.152,235.789L92.124,235.09L92.382,234.759L92.592,234.826L93.594,235.428L94.046,235.735L94.412,236.21L94.871,237.456L94.746,237.654L93.393,238.413ZM92.084,233.417L91.001,233.676L90.693,232.923L90.424,232.634L90.451,232.411L90.823,232.11L91.801,232.448L92.445,232.989ZM90.55,231.526L90.35,231.906L88.771,231.803L89.115,231.37ZM88.007,231.008L87.789,231.213L87.597,231.165L86.587,231.038L86.431,230.237L86.353,230.093L87.288,229.599L87.472,229.828ZM83.604,228.659L83.149,229.009L82.333,228.364L82.558,228.105L83.122,227.756L83.79,227.828ZM322.196,225.87L323.187,227.171L326.04,226.774L326.974,227.605L329.196,229.81L330.844,231.418L331.842,231.37L333.527,232.092L333.182,233.098L335.375,233.242L337.461,234.699L337.003,235.53L334.949,235.981L332.907,236.156L330.876,235.879L326.532,236.222L328.793,234.242L327.693,233.315L325.792,233.08L324.894,232.05L324.46,230.027L322.749,230.165L320.095,229.207L319.309,228.461L315.495,227.912L314.555,227.22L315.808,226.328L312.902,226.147L310.48,227.997L309.235,228.045L308.673,228.912L307.129,229.304L305.909,228.967L307.649,227.864L308.492,226.581L309.97,225.792L311.605,225.093L313.913,224.755L314.693,224.363L317.23,224.617L319.575,224.659ZM329.112,222.332L328.357,222.507L327.922,220.458L326.971,219.427L327.975,217.166L328.85,217.304L329.419,220.265ZM921.637,225.78L921.005,228.702L918.771,225.695L917.824,223.056L918.736,219.553L920.45,216.858L922.075,217.919L922.084,220.072ZM329.889,212.281L326.565,212.854L326.592,211.533L328.025,211.249L329.963,211.358ZM332.323,212.244L331.387,214.778L330.918,214.325L331.274,212.461L330.197,211.05L330.257,210.646ZM948.869,185.309L949.709,186.532L948.906,188.683L947.285,187.544L946.107,188.37L946.121,190.456L943.857,189.443L943.246,187.749L944.042,185.628L945.844,186.038L946.449,184.544ZM659.307,179.896L657.518,181.406L657.804,182.075L657.916,182.364L655.103,183.809L653.647,183.345L652.846,181.918L654.2,181.786L654.395,181.768L654.724,180.907L656.799,180.955ZM628.062,179.775L629.722,180.973L631.942,180.768L634.104,181.021L634.08,181.641L635.61,181.214L635.331,182.267L631.207,182.568L631.194,181.978L627.632,181.286ZM604.13,170.81L603.245,173.601L603.72,174.7L603.211,176.522L600.956,175.187L599.489,174.803L595.437,173.001L595.752,171.176L599.095,171.5L601.985,171.116ZM585.85,160.276L587.616,162.779L587.378,167.458L586.086,167.231L584.97,168.411L583.872,167.476L583.635,163.209L582.927,161.189L584.48,161.369ZM962.588,174.67L962.781,177.508L964.053,179.288L963.621,181.792L960.636,183.465L955.66,183.682L953.148,187.749L950.681,186.381L949.508,183.718L944.801,184.501L942.028,186.182L938.671,186.249L942.59,188.87L942.819,194.924L941.454,196.42L939.563,195.039L939.16,191.824L936.949,190.787L934.887,188.346L937.224,187.249L937.891,185.013L940.087,183.17L941.228,180.744L946.514,179.679L949.886,180.407L950.193,174.094L952.838,175.788L955.449,172.238L956.438,170.864L956.169,166.53L953.744,162.557L953.803,160.324L956.452,159.679L960.469,164.573L961.785,167.44L960.866,171.008ZM586.714,156.955L585.881,159.673L584.586,158.957L583.865,156.586L584.385,155.282L586.134,153.938ZM958.204,149.855L960.572,150.602L961.685,149.121L964.545,153.053L960.955,154.015L960.396,157.509L954.728,155.104L955.228,158.951L952.149,159.005L949.935,155.508L949.87,152.803L952.724,152.607L950.826,147.766L950.079,145.049L955.414,148.683ZM385.996,141.574L387.86,142.038L390.415,141.944L388.693,143.369L387.628,143.592L384.539,142.121L384.177,140.957L385.503,139.882ZM393.467,132.739L392.139,132.803L388.96,131.721L386.943,130.101L387.954,129.817L391.227,130.675L393.566,132.111ZM226.079,134.79L224.452,135.269L220.892,133.7L220.77,132.483L219.062,131.279L219.149,130.304L216.755,129.683L216.839,127.825L217.55,127.033L219.896,127.779L221.234,128.293L223.532,128.658L223.746,129.84L224.142,131.465L226.022,132.885ZM410.164,127.316L407.601,130.31L409.65,129.156L411.264,129.886L410.01,131.082L412.163,132.023L413.611,131.186L416.032,132.244L414.587,134.767L416.615,134.178L416.534,136.005L416.877,138.152L415.036,141.203L413.778,141.333L412.128,140.68L413.378,137.842L412.729,137.403L408.861,140.41L407.26,140.287L409.572,138.662L407.163,137.818L404.197,138.023L398.95,137.918L398.796,136.894L400.801,135.678L399.868,134.744L402.69,132.669L406.925,127.212L409.102,125.273L411.726,124.099L412.918,124.249L412.155,125.17ZM213.194,115.966L215.887,115.699L212.532,119.519L213.055,122.238L212.002,122.232L211.422,120.686L211.474,119.131L210.853,118.082L211.376,116.602L212.257,115.535ZM943.296,127.114L950.048,133.181L945.321,132.047L946.841,137.028L951.691,140.575L953.085,143.003L949.743,140.91L949.562,143.598L947.314,140.68L945.55,137.309L942.889,133.583L941.832,130.989L938.915,126.415L935.067,123.07L932.042,118.447L933.354,116.904L931.18,115.348L931.988,114.877L934.306,117.097L937.555,120.342L939.837,123.674ZM542.056,121.969L537.281,123.973L533.552,123.461L535.859,119.925L534.652,116.5L538.325,113.875L540.355,112.316L542.536,112.18L545.257,114.243L543.786,116.545L544.146,118.949ZM592.809,110.727L591.437,113.422L588.603,111.543L588.159,110.159L591.88,109.065ZM168.499,105.744L164.883,106.999L164.292,106.151L165.218,104.609L168.537,103.443L170.324,102.944L171.827,103.165L172.032,104.181ZM552.397,100.771L549.61,104.309L552.216,103.859L555.005,103.875L554.311,106.553L551.954,109.519L554.617,109.732L557.1,114.011L558.879,114.548L560.487,118.373L561.237,119.702L564.436,120.348L564.13,122.513L562.782,123.507L563.854,125.262L561.465,127.05L557.901,127.016L553.347,127.958L552.106,127.287L550.321,128.884L547.852,128.496L545.943,129.805L544.533,129.121L548.529,125.533L550.926,124.801L546.769,124.231L546.049,122.881L548.845,121.831L547.442,120.005L547.986,117.797L551.89,118.105L552.297,116.153L550.548,114.045L547.405,113.456L546.811,112.553L547.792,111.065L546.96,110.148L545.528,111.718L545.466,108.521L544.225,106.837L545.267,103.437L547.322,100.782L549.338,101.041ZM144.941,96.63L142.906,97.133L141.852,96.532L141.204,95.652L144.215,95.102L145.904,95.396ZM364.734,89.427L362.961,91.098L361.998,90.828L361.815,89.88L362.039,89.659L363.457,88.707L364.432,88.777ZM359.141,87.672L355.372,89.422L353.67,89.352L353.575,88.493L356.164,87.03L359.506,87.062ZM142.475,84.295L143.319,84.896L145.187,84.571L146.266,85.402L148.241,85.823L147.676,86.164L145.111,86.832L143.982,86.148L143.662,85.578L141.315,85.759L141.035,85.482ZM356.168,78.457L355.851,79.815L357.351,79.337L358.296,80.151L360.352,81.22L362.601,82.191L362.041,83.679L363.949,83.435L365.156,84.476L362.486,85.466L359.088,84.71L358.468,83.297L355.175,84.965L350.824,86.597L350.986,84.752L347.515,85.056L350.489,83.504L352.159,81.046L354.582,78.2ZM525.508,75.994L524.765,77.986L527.278,80.099L523.924,82.477L516.703,84.625L514.533,85.194L511.389,84.731L504.742,83.738L507.321,82.355L502.289,80.83L506.642,80.23L506.671,79.316L501.75,78.598L503.686,76.587L507.361,76.134L510.783,78.221L514.629,76.546L517.517,77.416L521.586,75.776ZM380.743,73.868L378.008,74.023L378.204,72.532L380.102,70.831L382.473,70.411L383.866,71.246L383.221,72.547L382.733,72.97ZM697.785,160.019L699.656,162.522L701.003,162.689L702.034,163.639L699.77,163.921L699.744,166.668L699.474,167.908L698.571,168.735L698.93,170.492L700.254,173.109L703.073,173.847L705.345,175.626L709.511,176.239L713.821,175.301L713.955,174.466L712.983,171.962L712.727,168.255L710.306,167.057L710.581,164.632L708.675,164.429L708.735,161.452L711.553,162.318L713.803,161.189L711.344,159.071L710.137,157.056L708.06,157.956L708.277,160.539L706.959,158.254L706.641,157.396L707.037,155.931L706.261,154.705L702.796,153.504L700.921,150.359L699.209,149.47L698.891,148.334L701.643,148.665L701.223,146.111L703.44,145.544L705.958,146.064L705.705,142.668L704.731,140.522L702.037,140.686L699.533,139.841L696.709,141.368L694.312,142.097L693.481,144.158L690.936,144.73L688.892,148.334L692.022,151.658L692.186,154.021L695.979,158.164ZM993.303,80.557L993.304,80.572L991.797,81.943L988.399,81.711L992.482,83.377L996.869,85.967L998.95,86.816L1000.693,88.122L1001.001,88.965L995.652,88.273L991.354,90.666L989.551,91.039L988.107,93.285L986.505,95.254L987.065,96.723L981.251,94.492L977.24,97.024L974.928,95.822L973.861,97.21L970.083,96.767L971.295,98.894L971.203,102.047L972.505,103.371L976.071,104.103L980.036,108.902L977.752,109.025L979.052,111.802L981.364,113.242L978.241,114.945L980.479,118.783L977.208,119.605L979.111,123.042L977.697,126.213L974.945,123.869L970.001,118.931L962.549,111.487L959.931,106.893L960.388,104.926L959.182,103.393L962.479,102.661L963.255,98.559L964.437,95.232L966.419,92.672L963.894,88.181L961.186,88.45L962.329,91.071L959.44,94.584L953.62,90.65L948.278,91.736L947.024,97.122L950.895,99.108L946.014,99.955L942.396,100.291L940.523,97.944L936.191,97.451L934.46,99.048L926.274,98.487L918.79,99.449L915.627,105.833L911.502,113.66L915.903,114.078L918.667,116.176L921.739,116.926L922.218,115.245L925.243,115.467L931.675,119.165L933.779,122.037L934.035,125.435L936.519,129.51L938.809,135.006L937.77,140.011L938.258,142.415L936.84,146.471L935.322,150.507L934.628,152.578L931.982,154.634L930.251,154.681L927.632,152.976L925.184,155.544L925.328,156.717L924.158,156.502L923.532,157.7L923.27,158.898L924.563,161.428L923.476,162.205L923.258,162.832L922.677,163.873L921.06,164.453L920.254,165.404L920.838,166.937L920.681,167.327L922.064,167.902L924.338,169.454L928.571,173.637L930.223,175.938L931.903,180.034L931.581,181.99L929.231,182.671L927.484,184.146L925.002,184.453L923.956,182.514L923.475,179.848L920.753,176.149L922.635,175.554L919.444,172.514L917.78,171.836L917.708,172.508L916.998,172.803L916.62,172.13L915.749,171.806L914.749,171.242L914.889,169.682L915.38,169.268L914.851,168.621L914.759,166.71L914.325,166.129L912.501,165.746L910.759,164.8L907.254,165.823L905.875,167.482L903.213,168.447L904.043,166.805L902.875,165.428L904.094,163.054L901.798,161.201L899.89,162.45L897.746,164.908L896.947,167.189L894.245,167.362L893.454,169.011L895.9,171.41L898.453,171.992L899.161,173.583L901.819,174.616L904.025,172.088L907.105,173.469L908.979,173.559L910.183,175.422L906.51,176.413L905.894,178.332L903.763,180.112L903.189,182.604L906.983,184.556L909.333,188.062L912.197,191.324L915.077,194.062L915.875,196.71L914.351,197.681L915.634,199.581L917.702,200.691L918.119,203.593L918.188,206.417L916.636,206.737L915.55,210.598L914.379,215.272L912.672,219.523L909.348,222.809L905.871,225.81L902.596,226.219L901.1,227.798L899.826,226.641L898.504,228.412L894.685,230.195L891.623,230.737L891.306,234.495L889.681,234.705L888.416,232.122L888.866,230.749L884.628,229.605L883.329,230.189L879.892,233.23L877.985,236.589L877.737,239.056L880.633,242.804L884.153,247.446L887.207,249.64L889.44,252.494L891.654,259.058L891.937,265.294L889.629,267.628L886.357,269.914L884.12,272.865L880.578,276.162L879.3,273.896L879.961,271.491L877.531,269.482L874.933,268.96L873.54,267.118L871.643,263.452L868.755,261.826L866.16,261.892L866.313,259.106L863.64,259.124L863.803,263.026L862.642,268.204L861.916,271.335L862.32,273.902L864.314,274.01L865.78,277.242L866.523,280.311L868.343,282.336L870.212,282.75L871.891,284.584L872.612,284.919L874.517,287.053L875.895,289.425L876.16,291.81L875.893,293.421L876.226,294.637L876.5,296.728L877.6,297.704L878.854,300.837L878.813,302.029L876.647,302.268L873.716,299.645L870.04,296.836L869.644,295.033L867.803,292.666L867.282,289.737L866.104,287.808L866.317,285.225L865.571,283.727L864.29,282.366L863.674,280.616L861.928,278.614L860.337,276.936L859.976,279.016L859.269,277.05L859.448,274.837L860.094,271.443L859.583,268.81L860.288,266.098L859.064,263.998L858.93,260.133L857.501,258.296L856.042,254.05L854.95,249.568L853.251,246.622L851.496,248.408L848.384,250.938L846.647,250.619L844.674,249.79L845.158,245.39L844.076,242.058L841.127,237.961L841.304,236.68L839.473,236.222L836.902,233.327L835.757,231.466L835.292,229.653L834.439,227.943L832.842,225.87L830.068,225.731L830.583,227.195L829.971,229.177L828.584,228.455L828.247,229.105L827.345,228.714L826.131,228.394L825.918,229.695L823.876,229.653L820.295,230.388L820.87,233.068L819.576,235.169L815.583,237.564L812.758,241.746L810.765,243.989L808.038,246.31L808.21,247.945L806.805,248.822L804.22,250.097L802.824,250.283L802.182,252.987L803.247,257.605L803.666,260.547L802.647,263.914L803.07,269.938L801.503,270.112L800.292,272.811L801.283,273.98L798.565,274.981L797.674,277.391L796.495,278.41L793.436,275.101L791.741,270.142L790.334,266.566L789.155,264.892L787.284,261.484L786.173,257.047L785.459,254.831L782.258,249.958L780.315,243.075L778.915,238.527L778.42,234.218L777.424,230.888L773.33,233.014L771.165,232.592L766.736,228.28L768.004,226.991L766.942,225.593L763.047,222.574L760.751,221.669L759.518,219.107L756.847,216.4L751.47,217.069L746.662,217.136L742.548,217.636L736.826,216.557L733.5,215.736L730.093,215.278L728.291,210.905L726.796,210.272L724.602,210.911L721.833,212.636L718.084,211.454L714.77,208.715L711.815,207.702L709.436,204.317L706.68,199.563L705.182,200.142L703.17,198.96L702.256,200.353L700.495,200.178L701.296,201.753L701.128,202.567L702.382,205.252L703.887,208.329L705.433,209.144L706.072,210.392L708.259,211.888L708.592,213.36L708.433,214.548L708.934,215.749L709.894,216.744L710.412,217.913L710.941,218.788L710.476,216.195L711.074,214.325L711.841,213.939L712.861,215.061L713.14,217.142L712.71,219.24L713.419,220.602L713.925,220.428L714.143,221.404L716.41,220.844L718.883,220.934L720.694,221.042L722.463,218.631L724.414,216.346L726.032,214.15L726.736,212.938L727.147,213.246L727.049,214.717L726.733,215.369L727.469,218.179L729.086,220.614L730.892,221.904L733.132,222.375L734.964,223.02L736.535,225.063L737.472,226.244L738.597,226.695L738.673,227.491L737.814,229.611L737.445,230.611L736.3,231.749L735.42,234.181L734.042,233.995L733.497,234.844L733.191,236.649L733.776,239.026L733.533,239.46L732.146,239.448L730.376,240.777L730.229,242.509L729.608,243.261L727.729,243.231L726.618,244.127L726.741,245.564L725.36,246.55L723.673,246.214L721.74,247.41L720.363,247.608L718.245,248.564L717.765,250.145L717.78,251.352L714.86,252.848L710.122,254.506L707.548,257.011L706.227,257.203L705.311,256.999L703.609,258.47L701.711,259.148L699.176,259.334L698.422,259.539L697.8,260.475L697.015,260.733L696.598,261.634L695.086,261.556L694.135,262.036L692.028,261.856L691.148,259.785L691.144,257.845L690.591,256.801L689.871,254.176L688.924,252.716L689.525,252.542L689.122,250.92L689.455,250.235L689.238,248.69L688.759,247.169L687.785,246.105L687.462,244.686L685.833,243.412L684.046,240.434L683.006,237.534L680.77,235.09L679.392,234.507L677.18,231.117L676.664,228.641L676.643,226.533L674.645,222.586L673.148,221.193L671.486,220.458L670.347,218.414L670.446,217.612L669.48,215.761L668.555,214.971L667.194,212.317L665.156,209.445L663.46,206.996L661.987,207.014L662.293,205.053L662.316,203.81L662.554,202.386L662.415,201.868L661.713,203.304L661.301,205.994L660.654,207.853L660.013,208.474L658.937,207.322L657.488,205.735L654.988,200.625L654.708,200.945L656.222,204.709L658.312,208.293L660.963,213.843L662.193,215.779L663.3,217.793L666.244,221.736L665.698,222.357L665.953,224.671L669.638,227.864L670.214,228.593L671.411,232.086L670.794,232.731L671.45,236.391L672.802,240.639L674,241.511L675.722,242.828L677.694,246.935L678.701,250.199L680.442,251.929L684.736,255.281L686.512,257.299L688.255,259.346L689.261,260.565L690.794,261.634L691.563,262.732L691.527,264.202L689.834,265.054L691.175,266.02L692.197,266.674L692.845,268.138L694.27,269.626L695.782,269.638L698.618,268.732L701.909,268.312L704.546,267.208L706.047,266.974L707.103,266.326L708.827,266.206L709.798,266.134L711.175,265.606L712.767,265.252L714.153,264.04L715.301,264.028L715.414,265.006L715.238,267.07L715.332,268.93L714.74,270.214L714.037,274.046L712.704,277.997L710.949,282.522L708.456,287.712L705.921,291.672L702.387,296.5L699.352,299.369L694.802,302.879L691.956,305.574L688.604,309.857L687.892,311.725L687.194,312.564L685.038,313.978L684.278,315.451L683.131,315.715L682.667,318.206L681.672,319.632L681.048,321.986L679.799,323.155L678.319,327.517L678.457,329.524L680.386,330.819L680.454,331.736L679.569,333.875L679.718,334.954L679.477,336.645L680.479,338.863L681.633,342.359L682.715,343.133L683.153,344.723L682.904,348.251L683.152,351.365L683.029,356.907L683.481,358.649L682.451,361.184L681.149,363.647L679.108,365.847L676.276,367.2L672.786,368.925L669.185,372.739L667.99,373.388L665.75,375.916L664.461,376.734L664.068,379.268L665.331,381.966L665.784,384.05L665.759,385.116L666.297,384.941L665.982,388.43L665.387,390.081L666.042,390.696L665.499,392.179L664.168,393.445L661.633,394.644L657.93,396.574L656.537,397.895L656.688,399.39L657.427,399.632L657.037,401.507L656.102,404.101L655.539,407.064L654.653,408.675L652.505,410.473L651.895,410.991L650.51,412.801L649.557,414.629L647.695,417.187L644.113,420.86L641.895,423.001L639.587,424.622L636.448,426.002L634.966,426.189L634.517,427.177L632.797,426.647L631.312,427.328L628.227,426.641L626.45,427.075L625.265,426.888L622.201,428.292L619.693,428.858L617.837,430.201L616.515,430.285L615.373,429.021L614.4,428.955L613.239,427.364L613.077,427.858L612.743,426.9L612.873,424.815L612.053,422.428L613.016,421.777L613.078,419.045L611.323,415.709L609.992,412.687L609.982,412.681L608.068,408.047L605.975,405.356L604.92,402.75L604.375,399.282L603.731,396.701L602.898,391.214L602.94,386.953L602.615,385.013L601.489,383.55L600.007,380.605L598.522,376.343L597.918,374.11L595.533,370.639L595.394,367.915L595.148,365.679L595.609,362.56L596.703,359.309L596.888,357.784L597.915,354.589L598.655,353.13L600.424,350.813L601.429,349.235L601.78,346.607L601.64,344.597L600.746,343.331L599.958,341.184L599.233,339.055L599.404,338.324L600.35,336.915L599.457,333.498L598.848,331.124L597.335,328.883L597.625,328.194L597.203,327.097L596.403,324.437L593.91,320.686L590.784,317.116L588.764,314.193L586.907,310.54L587.007,309.366L587.68,308.234L588.418,305.658L589.033,303.035L588.46,302.496L589.512,298.525L589.946,295.727L588.751,293.391L587.352,292.792L586.731,291.205L585.949,290.695L585.979,289.719L582.803,290.995L581.647,290.803L580.472,291.6L578.029,291.522L576.385,289.305L575.378,286.747L573.207,284.41L570.91,284.458L568.217,284.452L565.7,284.865L563.238,285.62L558.444,287.694L556.75,288.91L553.999,289.934L551.272,288.928L549.886,288.97L547.753,288.275L545.795,288.317L542.175,288.934L540.049,289.952L537.02,291.252L536.427,291.163L535.623,291.193L532.482,289.503L529.721,286.807L527.125,284.871L525.082,282.588L524.26,282.324L522.072,280.898L520.505,279.004L519.978,277.709L519.628,275.089L518.311,272.996L517.142,271.605L516.369,271.149L515.621,270.442L515.289,268.876L514.85,268.096L513.982,267.514L512.371,266.032L511.094,265.798L510.42,264.802L510.439,264.262L509.532,263.512L509.348,262.75L508.892,260.031L509.314,258.458L508.111,255.696L506.632,254.434L507.976,253.762L509.488,251.268L510.245,249.441L510.026,247.53L510.913,245.781L511.359,242.431L511.12,238.924L510.798,237.155L511.147,235.379L510.416,233.688L508.884,232.152L509.058,230.653L509.247,229.003L510.418,228.033L511.452,226.177L511.295,224.972L512.403,222.459L514.134,220.192L515.147,219.62L516.002,217.546L516.125,215.646L517.26,213.445L519.271,212.142L521.262,208.504L522.832,207.086L525.589,206.688L527.973,204.257L529.468,203.304L531.99,200.329L531.364,195.895L532.554,192.831L532.989,190.95L534.919,188.545L537.854,186.917L540.028,185.447L542.031,181.762L542.971,179.583L545.09,179.595L546.795,181.105L549.531,180.859L552.505,181.647L553.759,181.683L556.532,179.739L559.633,179.126L561.439,177.658L564.198,176.576L569.044,175.944L573.766,175.656L575.215,176.179L577.886,174.785L580.939,174.755L582.121,175.578L584.071,175.367L587.134,173.932L589.151,174.358L589.117,176.155L591.501,174.851L591.731,175.53L590.359,177.267L590.392,178.915L591.414,179.799L591.142,182.875L589.297,184.664L589.906,186.604L591.397,186.664L592.179,188.358L593.303,188.912L596.748,190.142L597.959,189.835L600.405,190.425L604.317,192.017L605.811,195.189L608.465,195.877L612.642,197.373L615.841,199.141L617.228,198.218L618.543,196.577L617.717,193.85L618.535,192.114L620.532,190.443L622.51,189.961L626.473,190.691L627.567,192.283L628.657,192.295L629.618,192.904L632.537,193.32L633.329,194.502L637.195,194.442L640.075,195.382L643.04,196.438L644.438,196.993L646.6,195.859L647.716,194.84L650.263,194.544L652.378,194.996L653.313,196.764L653.898,195.6L656.302,196.444L658.6,196.643L659.959,195.744L660.693,194.574L660.474,194.369L661.095,192.705L661.424,190.015L661.754,189.117L661.834,189.081L662.574,186.176L663.747,183.67L663.786,183.544L663.223,180.822L663.766,179.36L662.533,177.748L663.465,176.413L661.759,176.72L659.268,175.902L657.52,177.947L653.217,178.344L650.705,176.437L647.603,176.317L647.084,177.79L645.143,178.217L642.207,176.323L639.091,176.383L637.086,172.857L634.833,170.888L635.967,168.135L634.02,166.44L636.834,163.06L641.159,162.922L642.064,160.24L647.461,160.706L650.568,158.421L653.71,157.425L658.32,157.348L663.539,159.828L667.758,161.195L670.948,160.652L673.41,160.968L676.448,159.124L676.641,157.622L675.563,155.223L673.755,153.926L672.15,153.522L670.963,152.447L666.974,149.488L663.62,148.168L660.931,146.117L662.846,145.556L664.671,142.644L662.915,141.268L666.711,139.853L666.505,139.096L664.156,139.653L662.024,139.935L660.384,141.056L657.856,141.239L655.696,142.533L656.17,144.701L657.637,145.538L660.417,145.332L660.057,146.572L657.13,147.18L653.664,149.204L652.037,148.488L652.422,146.85L649.271,145.828L649.677,145.161L652.138,143.999L651.237,143.204L646.859,142.327L646.498,141.027L644.028,141.456L643.259,143.369L641.452,145.946L641.62,146.844L640.37,147.6L639.498,147.269L639.203,151.492L637.923,152.946L637.178,155.455L638.282,157.461L638.756,158.82L641.327,159.954L640.902,160.819L637.585,161.016L636.498,162.103L634.326,164.01L633.292,162.366L633.254,161.637L631.534,161.536L630.037,161.201L626.716,162.121L628.832,164.106L627.449,164.68L625.884,164.68L624.244,162.862L623.78,163.639L624.578,165.752L626.125,167.41L625.115,168.189L626.826,169.82L628.309,170.846L628.508,172.851L625.8,171.908L626.779,173.721L624.999,174.094L626.308,177.225L624.414,177.267L621.958,175.722L620.693,172.887L620.026,170.528L618.808,168.897L617.209,166.877L616.956,165.871L616.45,165.626L616.345,164.848L614.699,163.657L614.34,161.978L614.404,159.572L614.709,158.474L614.206,157.92L613.592,157.646L612.726,156.502L611.471,155.8L608.764,154.503L607.067,153.237L604.46,152.192L601.978,149.613L602.52,149.352L601.168,147.884L601.047,146.702L599.24,146.152L598.483,147.659L597.604,146.489L597.596,145.279L597.692,145.226L598.287,144.907L596.074,144.4L593.904,145.639L594.139,147.37L593.851,148.363L594.845,150.146L597.539,151.913L599.095,154.812L602.355,157.646L604.539,157.628L605.27,158.403L604.525,159.106L607.115,160.377L609.244,161.446L611.773,163.287L612.11,163.95L611.663,165.213L609.995,163.562L607.505,162.982L606.461,165.267L608.572,166.578L608.344,168.429L607.172,168.639L605.824,171.674L604.65,171.95L604.604,170.864L605.086,168.963L605.658,168.207L604.446,166.159L603.485,164.375L602.293,163.933L601.382,162.408L599.536,161.769L598.251,160.348L596.159,160.121L593.896,158.528L591.241,156.24L589.261,154.212L588.262,150.744L586.87,150.341L584.576,149.186L583.318,149.66L581.765,151.284L580.625,151.539L578.158,153.522L572.655,152.572L568.628,153.712L568.332,155.824L568.506,157.872L565.875,160.216L562.28,160.962L562.031,162.151L560.3,164.106L559.21,166.985L560.312,169.011L558.675,170.588L558.056,172.893L555.898,173.601L553.856,176.335L550.23,176.383L547.501,176.317L545.69,177.574L544.574,178.915L543.175,178.62L542.134,177.423L541.362,175.379L538.71,174.827L537.535,175.746L536.046,175.247L534.564,175.638L535.074,172.863L534.871,170.684L533.612,170.354L532.969,169.011L533.268,166.698L534.439,165.41L534.687,163.98L535.342,161.858L535.329,160.365L534.804,159.101L534.723,157.908L534.948,155.407L533.858,153.879L537.874,151.349L541.251,151.984L544.978,151.96L547.926,152.56L550.228,152.376L554.716,152.489L556.167,150.389L556.729,143.433L553.931,139.788L551.942,138.035L547.82,136.701L547.598,134.19L551.109,133.438L555.628,134.324L554.807,130.432L557.341,131.907L563.582,129.231L564.37,126.433L566.693,125.746L568.81,125.072L570.161,124.139L572.377,119.154L575.931,117.746L578.115,117.843L578.599,117.131L580.78,116.949L581.3,117.689L583.001,116.034L582.352,114.775L582.146,112.88L581.01,111.031L580.787,107.642L581.172,106.754L581.864,105.761L584.101,105.56L584.955,104.653L586.949,103.726L586.966,105.415L586.272,106.486L586.629,107.413L588.054,107.911L587.497,109.16L586.707,108.801L584.976,111.188L585.77,112.812L585.874,114.101L588.553,114.883L588.592,116.074L591.216,115.444L592.623,114.526L595.652,115.847L596.971,116.921L598.678,115.932L602.629,114.384L605.808,113.253L608.455,113.818L608.731,114.633L611.25,114.673L611.688,113.202L615.151,112.124L614.285,109.328L614.092,106.837L615.101,104.77L617.369,103.648L619.714,106.106L621.761,106.04L621.908,103.52L621.935,101.588L621.061,102.003L619.298,100.843L618.828,98.971L621.884,98.07L624.982,97.599L627.788,98.131L630.372,98.037L632.928,96.247L630.05,94.72L625.562,94.976L621.337,96.155L617.355,96.838L615.67,95.08L613.116,94.019L613.263,90.871L611.689,87.999L612.617,86.159L614.553,84.184L619.571,80.798L621.067,80.146L620.608,78.834L617.039,77.375L613.061,78.247L611.046,80.414L611.681,82.318L608.16,84.837L603.757,87.554L602.446,92.033L604.455,94.29L607.032,96.078L605.114,99.73L602.561,100.49L602.105,105.989L600.927,109.087L597.775,108.767L596.509,111.397L593.527,111.549L592.485,108.414L590.093,104.67L587.865,100.049L586.045,98.054L581.265,101.82L577.916,102.584L574.341,100.92L573.331,97.429L572.314,90.02L574.513,87.978L580.848,85.327L585.449,82.096L589.52,77.766L594.677,71.852L598.351,69.578L604.251,65.816L609.117,64.511L612.922,64.667L615.985,62.219L620.165,62.348L624.142,61.76L631.762,63.924L628.978,64.717L631.919,66.589L634.061,65.548L638.28,67.359L644.813,68.07L654.55,71.482L656.756,72.928L657.475,74.961L655.28,76.577L651.597,77.396L640.415,75.059L638.76,75.448L643.154,77.704L644.516,82.318L647.855,83.271L649.941,84.083L649.896,82.567L648.052,81.178L649.367,80.046L655.681,81.985L657.518,81.225L655.304,78.949L660.045,75.932L662.286,76.108L664.826,77.182L665.58,75.07L663.07,73.248L663.675,71.431L661.386,69.552L668.225,70.524L670.104,72.223L667.249,72.599L667.791,74.292L669.976,75.345L673.427,74.681L673.37,72.733L677.796,71.282L685.01,68.69L686.817,68.838L685.212,70.672L688.229,70.985L689.511,69.951L693.859,69.869L696.81,68.619L700.225,70.437L702.027,68.441L698.853,66.7L699.635,65.715L706.853,66.619L710.489,67.557L720.535,71L721.345,69.419L718.216,67.826L717.844,67.191L714.911,66.898L714.999,65.483L712.646,63.168L712.12,62.224L714.974,59.569L715.07,56.932L716.435,56.366L722.779,57.127L724.138,58.736L723.277,61.104L725.195,62.044L727.022,64.11L728.616,68.197L732.135,70.043L732.149,72.068L729.639,76.41L732.582,76.864L732.987,75.755L735.215,74.971L735.085,73.455L736.382,72.007L734.127,70.283L734.18,68.293L731.507,68.044L730.08,66.381L730.327,63.393L726.064,60.995L729.027,59.027L727.334,56.961L728.418,56.898L730.516,58.505L731.22,61.323L733.954,61.86L731.721,59.747L734.838,58.598L739.427,58.446L744.606,60.108L741.118,57.685L738.979,54.618L742.48,54.044L747.899,54.169L752.454,53.798L749.63,52.315L750.864,50.469L753.323,50.394L756.538,49.013L762.001,48.643L762.128,47.886L767.607,47.63L769.89,48.25L773.522,46.79L777.526,46.837L777.079,45.662L778.074,44.511L782.074,43.415L786.564,44.279L784.288,44.943L789.533,45.355L791.385,46.698L792.732,46.038L799.054,46.071L805.226,47.407L807.971,48.437L808.812,49.879L807.171,50.706L802.814,52.267L801.892,53.106L804.991,53.504L808.897,54.222L810.412,53.682L813.181,55.515L813.5,54.773L816.646,54.324L824.216,54.792L825.995,56.132L835.753,56.561L833.77,54.372L838.979,54.87L842.513,54.855L847.626,56.371L850.485,58.22L850.328,59.436L855.391,61.74L860.127,62.938L859.32,59.856L864.267,61.174L867.343,60.385L872.656,61.288L873.481,60.464L877.624,60.876L873.15,58.166L874.777,56.912L897.163,58.795L901.034,60.529L909.502,62.773L918.088,62.214L923.198,62.703L926.519,63.924L928.743,66.098L932.559,66.948L934.953,66.336L938.957,66.26L944.015,66.847L947.999,66.513L955.22,69.185L956.954,68.222L952.775,66.306L952.179,64.979L960.56,65.816L965.131,65.634L973.576,67.06L978.482,68.369L993.303,80.557ZM141.518,68.369L141.518,68.37L141.517,68.37L144.368,70.672L146.877,73.698L144.429,75.599L145.136,76.363L147.199,74.137L153.089,74.593L154.458,77.469L150.57,78.813L146.284,79.133L142.81,82.175L141.127,82.821L138.961,82.731L138.337,81.642L136.164,80.735L137.179,79.384L135.32,78.881L132.136,79.279L132.107,78.195L133.977,77.051L130.248,77.782L129.611,79.237L126.697,80.556L126.697,80.557L141.518,68.369ZM337.919,67.937L335.761,68.991L333.249,68.08L331.131,68.41L328.901,67.06L331.594,66.134L334.115,64.843L335.967,65.689L336.976,66.225L337.287,66.791ZM969.952,61.778L971.306,62.803L968.993,62.953L967.368,62.019L968.639,60.792L969.952,61.778ZM151.361,60.792L151.361,60.791L151.361,60.791L150.048,61.778L151.361,60.792ZM151.361,60.791L151.814,60.672L153.728,60.677L155.908,61.517L155.183,61.92L151.915,62.623L148.694,62.803ZM350.511,66.771L348.548,69.843L353.141,67.486L354.717,69.419L352.649,71.662L353.696,73.718L357.459,71.518L360.715,68.909L362.837,65.624L365.971,65.851L369.125,66.29L371.372,67.775L370.665,69.266L368.01,70.877L368.757,72.501L367.628,73.987L361.798,76.129L358.226,76.603L356.296,75.677L354.699,77.223L350.903,79.831L349.431,81.188L345.432,83.303L341.847,83.51L339.16,84.837L337.832,86.885L334.758,87.281L330.277,89.853L325.547,93.448L323.151,95.985L320.939,99.746L324.356,100.291L323.883,103.348L323.793,105.839L327.696,105.187L331.75,106.614L333.701,107.871L334.802,109.435L337.613,110.345L339.712,111.746L343.909,111.938L346.585,112.265L344.919,115.155L344.309,118.532L344.677,122.313L347.369,125.539L349.84,124.433L352.615,120.949L353.368,115.626L352.256,113.863L357.065,112.304L360.957,109.968L363.343,107.664L364.068,105.46L363.534,102.672L361.54,100.214L366.051,96.816L366.303,93.899L367.835,88.917L369.906,88.181L373.709,89.046L376.102,89.352L378.521,88.519L380.32,89.594L382.544,91.444L382.766,92.683L387.089,92.927L385.896,95.625L385.068,99.719L387.178,100.225L388.265,102.146L392.623,100.335L396.4,96.756L398.631,95.26L399.494,98.142L401.281,102.296L402.737,106.235L401.003,108.308L403.82,110.176L405.541,112.079L409.405,112.937L410.758,114.005L410.955,116.841L412.863,117.285L413.56,118.555L412.697,122.353L410.422,123.628L408.193,124.818L403.47,126.029L399.327,128.838L394.639,129.394L389.126,128.67L385.116,128.646L382.278,128.884L379.267,131.343L375.366,132.867L370.053,137.432L365.944,140.628L368.434,140.058L374.172,135.514L380.712,132.64L384.848,132.297L386.733,133.986L383.514,136.303L383.321,140.035L383.498,142.656L386.598,144.394L391.263,143.887L395.006,139.982L394.546,142.503L396.004,143.763L392.034,146.046L385.41,148.121L382.305,149.536L378.569,152.061L376.528,151.8L377.192,148.837L382.747,145.952L378.309,146.064L375.131,146.489L375.296,147.636L371.896,149.328L368.719,150.537L365.512,151.575L363.298,153.867L362.789,154.449L362.26,156.312L362.695,158.176L363.831,158.266L363.874,156.979L364.506,157.759L364.024,158.767L361.98,159.339L360.657,159.268L358.425,159.888L357.158,160.061L355.476,160.234L352.87,161.255L357.17,160.592L357.825,161.261L353.612,162.318L351.817,162.324L352.012,161.894L350.902,162.874L351.691,163.036L350.422,165.572L347.657,168.297L347.686,167.386L347.112,167.201L346.413,166.32L346.502,168.225L347.014,168.861L346.761,170.192L345.506,171.572L343.197,174.406L342.976,174.262L344.454,171.848L343.34,170.492L343.758,167.554L342.821,169.083L342.852,171.332L341.194,170.804L342.786,171.92L342.076,175.295L342.829,175.542L342.834,176.768L342.402,180.323L339.975,182.966L336.746,184.02L334.383,186.104L332.884,186.333L331.121,187.641L330.446,188.84L326.749,191.149L324.733,192.843L322.901,194.96L321.911,197.488L321.924,199.967L322.283,203.014L323.105,205.536L322.823,207.08L323.468,211.213L322.95,213.614L322.583,215.001L321.478,217.178L320.517,217.624L319.125,217.196L318.921,215.634L317.933,214.814L316.914,211.75L316.048,209.023L315.868,207.629L316.932,205.258L316.508,203.298L314.83,200.317L313.807,199.768L310.501,201.391L310.022,201.21L308.955,199.545L307.315,198.664L303.908,199.117L301.396,198.718L299.108,198.966L297.751,199.466L298.095,200.468L297.721,201.916L298.189,202.622L297.528,203.086L296.554,202.561L295.307,203.237L293.196,203.129L291.433,201.24L288.777,201.687L286.836,200.86L284.952,201.113L282.288,201.946L279.003,204.589L275.729,206.127L273.733,207.829L272.706,209.433L272.139,211.888L271.923,213.601L272.223,214.814L272.232,214.82L272.221,214.826L270.442,217.938L269.41,220.506L268.292,225.273L267.685,227.015L267.857,228.955L268.484,230.689L268.627,233.447L270.191,236.096L270.582,238.124L271.501,239.875L274.56,240.819L275.586,242.305L278.37,241.313L280.717,240.952L283.06,240.314L285.041,239.706L287.151,238.256L288.175,236.18L288.86,233.194L289.538,232.152L291.71,231.219L295.006,230.394L297.637,230.521L299.504,230.219L300.101,230.972L299.747,232.688L297.83,234.802L296.809,236.968L297.274,237.588L296.609,239.123L295.493,241.896L294.844,240.982L294.207,241.042L294.149,241.565L294.721,241.583L294.541,242.546L293.857,244.085L294.048,244.632L293.576,245.907L293.73,246.244L293.167,248.041L292.458,248.979L291.901,249.093L291.161,250.325L292.067,250.968L292.388,250.439L293.23,250.89L293.53,251.028L294.264,250.403L295.13,250.355L295.38,250.643L295.868,250.469L297.236,250.788L298.64,250.691L299.663,250.301L300.055,249.904L301.003,250.09L301.695,250.331L302.499,250.247L303.131,249.94L304.459,250.433L304.929,250.511L305.784,251.172L306.571,251.965L307.615,252.512L308.311,253.485L308.015,253.828L307.784,254.62L307.974,255.918L307.16,257.131L306.701,258.554L306.462,260.121L306.546,261.033L306.487,262.63L305.988,262.978L305.58,264.496L305.714,265.432L305.031,266.338L305.09,267.292L305.518,267.874L306.147,269.8L307.233,271.227L308.56,272.739L309.578,274.01L309.467,274.759L310.676,274.921L310.978,274.633L311.772,275.503L313.279,275.251L314.637,274.352L316.522,273.638L317.628,272.583L319.293,272.787L319.162,273.134L320.855,273.26L322.179,273.872L323.106,274.933L324.204,275.917L325.768,276.024L328.197,273.554L329.469,273.176L329.57,272.007L330.314,269.008L332.163,267.364L334.084,267.298L334.374,266.56L336.741,266.854L339.247,265.066L340.495,264.274L342.081,262.564L343.137,262.78L343.87,263.716L343.197,264.91L343.054,265.744L341.242,266.158L342.135,267.766L341.988,269.62L340.519,271.677L341.517,274.49L342.846,274.262L343.664,271.701L342.793,270.454L342.802,267.772L346.683,266.326L346.376,264.658L347.513,263.542L348.442,266.032L350.573,266.086L352.422,268.066L352.474,269.236L355.2,269.272L358.474,268.906L360.129,270.49L362.44,270.927L364.197,269.824L364.29,268.93L368.069,268.72L371.72,268.666L369.079,269.716L370.034,271.389L372.455,271.653L374.675,273.398L375.045,276.234L376.629,276.156L377.791,276.99L379.749,278.291L381.544,280.598L381.571,282.42L382.723,282.504L384.308,284.236L385.471,285.465L389.114,286.178L389.46,285.537L391.941,285.279L395.193,286.232L396.228,286.621L398.451,287.46L401.623,290.45L402.103,291.899L403.151,291.732L403.879,293.691L405.516,299.878L407.152,300.459L407.215,302.903L404.918,305.82L405.864,306.886L411.272,307.437L411.392,310.989L413.707,308.665L417.554,309.935L422.651,312.097L424.152,314.169L423.673,316.128L427.219,315.038L433.181,316.913L437.748,316.775L442.302,319.704L446.259,323.67L448.628,324.688L451.237,324.832L452.364,325.947L453.475,330.453L454.022,332.599L452.949,338.456L451.452,340.764L447.317,345.695L445.519,349.703L443.386,352.782L442.635,352.848L441.893,355.46L442.419,362.109L441.865,367.579L441.67,369.924L440.797,371.325L440.557,376.078L437.819,380.719L437.575,384.393L435.27,385.935L434.738,388.074L431.494,388.062L426.917,389.43L424.963,391.015L421.725,392.058L418.494,394.892L416.341,398.425L416.185,401.085L416.887,403.052L416.748,406.653L416.282,408.397L414.453,410.358L412.001,416.632L409.821,419.455L408.075,421.125L407.241,424.514L405.639,426.545L404.729,428.786L401.799,430.761L399.556,430.051L398.052,430.43L395.14,428.906L393.196,429.021L391.106,427.051L391.224,428.906L395.41,431.953L395.446,434.408L397.505,435.954L397.672,437.691L395.777,442.237L391.935,444.138L386.398,444.876L383.211,444.522L384.26,446.631L384.253,449.276L385.163,451.058L383.752,452.3L380.993,452.79L377.994,451.5L377.118,452.426L378.346,455.927L380.493,456.987L381.757,455.879L383.017,457.707L380.723,458.795L379.034,460.976L379.532,464.502L379.369,466.371L376.774,466.383L375.102,468.166L375.045,470.777L378.464,473.321L381.262,474.019L381.216,477.128L378.599,479.072L378.092,483.097L376.073,484.453L375.504,486.049L377.527,489.587L379.948,491.55L378.777,491.378L376.42,491.355L375.432,492.186L373.487,493.404L374.19,496.55L373.108,496.63L369.755,495.537L365.881,493.187L361.881,491.252L360.264,489.104L360.3,487.111L358.147,484.841L355.771,478.99L355.824,475.672L357.83,472.993L353.36,471.982L355.004,468.909L354.187,463.105L357.625,464.337L357.02,457.07L354.894,456.135L355.247,460.524L353.355,460.031L352.822,455.003L352.047,448.463L352.725,446.044L351.064,442.591L349.868,438.593L351.044,438.478L351.493,432.742L352.269,427.051L352.431,421.74L350.74,416.403L351.076,413.465L349.942,409.061L350.941,404.711L350.394,397.816L350.286,390.418L350.19,382.46L349.289,376.638L348.116,371.632L344.878,369.587L344.47,368.132L338.13,364.567L332.34,360.685L329.808,358.492L328.297,355.562L328.713,354.541L325.765,349.889L322.305,343.349L319.014,336.291L317.679,334.679L316.598,332.071L314.122,329.758L311.887,328.326L312.816,326.744L311.228,323.37L312.104,320.89L314.482,318.656L316.06,316.008L315.376,314.463L314.234,316.11L312.382,314.559L312.985,313.558L312.436,310.348L313.501,309.815L314.065,307.611L315.222,305.329L315.007,303.885L316.696,303.131L318.799,301.717L318.402,300.621L319.539,300.358L319.43,298.585L320.165,297.303L321.688,297.063L323.017,294.841L324.225,292.984L323.124,292.139L323.751,290.084L323.172,286.849L323.854,285.92L323.486,282.924L322.337,281.036L321.363,280.017L320.808,278.105L321.603,277.158L320.847,276.918L320.339,275.749L318.881,274.759L317.529,274.987L316.846,276.216L315.568,277.11L314.892,277.23L314.557,277.967L315.91,279.891L315.064,280.347L314.6,280.868L313.163,281.048L312.739,278.932L312.314,279.537L311.314,279.328L310.773,277.901L309.534,277.667L308.766,277.254L307.459,277.26L307.329,278.027L307.007,277.493L305.393,276.708L304.821,275.965L305.208,275.347L305.134,274.568L304.342,273.716L303.191,273.02L302.179,272.565L302.039,271.527L301.282,270.897L301.409,271.929L300.75,272.775L300.114,271.791L299.162,271.443L298.795,270.724L298.893,269.65L299.369,268.528L298.552,268.03L299.304,267.346L298.34,266.23L297.032,264.802L296.465,263.602L295.281,262.492L293.894,260.889L294.283,260.337L294.737,260.871L294.989,260.625L294.567,259.515L293.679,259.202L293.262,260.043L291.508,259.989L290.448,259.647L289.259,258.944L287.599,258.722L286.812,257.96L285.325,257.341L283.432,257.275L282.119,256.572L280.65,255.107L277.66,251.286L276.231,250.133L273.885,249.207L272.156,249.465L269.564,250.806L267.997,251.154L265.98,250.217L263.802,249.544L261.186,247.915L258.992,247.416L255.807,245.763L253.52,244.067L252.9,243.117L251.25,242.906L248.341,241.782L247.337,240.157L244.426,238.142L243.3,235.897L242.889,234.163L243.953,233.82L243.821,232.803L244.678,231.882L244.913,230.653L244.21,229.051L244.211,227.635L243.551,225.84L241.652,222.302L239.247,219.517L238.296,217.298L236.086,215.845L235.744,214.971L236.712,212.769L235.4,211.943L234.082,210.205L233.977,207.72L232.471,207.43L231.245,205.554L230.336,203.816L230.512,202.706L229.69,200.015L229.433,197.289L229.889,195.919L228.204,194.502L227.181,194.659L225.814,193.676L224.91,195.123L224.877,196.836L224.374,199.515L224.955,200.981L226.443,203.436L226.699,204.275L227.075,204.528L227.136,205.753L227.668,205.705L227.655,208.003L228.323,208.908L228.627,210.175L230.026,211.985L230.205,215.302L230.725,216.864L231.165,218.534L230.906,220.409L232.314,220.53L233.163,222.146L233.898,223.737L233.7,224.376L232.173,225.683L231.65,225.665L231.308,223.502L229.794,221.47L228.036,219.746L226.722,218.842L227.423,216.237L227.435,214.307L226.297,213.203L224.66,211.611L224.151,212.069L223.64,211.14L222.043,210.278L220.842,208.209L221.125,207.943L222.292,208.142L223.739,206.809L224.277,205.204L222.717,202.658L221.275,201.675L220.843,199.448L220.454,197.108L219.971,194.261L219.801,191.058L219.913,189.238L218.717,187.189L217.508,186.761L217.543,185.742L215.983,185.562L215.276,184.604L212.721,184.248L212.197,183.676L212.545,181.725L211.077,178.151L210.613,173.217L211.044,172.394L210.256,171.224L209.284,168.255L210.124,165.368L209.461,163.436L211.378,160.515L212.656,157.491L213.022,154.794L215.699,151.486L219.519,145.143L221.448,140.481L222.178,137.514L222.275,135.912L222.968,135.24L226.247,136.408L225.947,139.677L227.097,138.762L228.188,135.923L228.823,133.1L228.457,133.094L225.178,129.718L224.124,128.241L220.134,126.825L220.498,123.812L222.18,121.734L219.717,120.291L221.03,117.575L219.49,115.138L220.604,113.417L220.041,112.158L218.495,111.098L219.826,108.207L218.467,105.538L219.411,102.44L217.13,102.229L213.163,102.146L210.92,101.207L208.406,97.834L206.503,97.221L203.078,96.067L199.377,96.34L195.73,94.862L193.968,93.492L190.598,94.171L189.151,96.411L187.581,96.619L184.093,97.292L180.92,98.383L177.53,99.075L178.854,97.166L182.819,94.002L186.356,93.014L186.405,92.212L181.613,93.997L177.964,96.144L172.285,98.443L172.727,100.021L168.285,102.362L164.354,103.731L160.926,104.737L159.031,106.19L153.553,107.894L151.41,109.452L147.181,110.868L145.619,110.615L142.411,111.543L138.809,112.677L135.697,113.79L130.408,114.747L130.485,114.186L134.675,112.626L138.091,111.6L142.427,109.777L145.953,109.407L148.405,108.045L153.684,106.073L154.837,105.41L157.739,104.253L160.384,101.77L163.4,99.845L159.595,100.832L159.286,100.269L156.842,101.455L156.704,99.801L154.95,100.97L155.494,99.35L151.763,100.65L150.215,100.65L151.805,98.712L153.38,97.522L152.857,96.373L149.006,96.991L148.352,95.478L147.402,94.704L149.19,92.889L148.647,91.525L151.467,89.691L155.279,87.919L157.82,86.298L160.035,86.068L161.201,86.57L164.726,85.05L166.212,85.322L169.064,84.348L170.08,82.916L169.31,82.355L172.344,81.152L170.83,81.188L167.56,81.864L166.095,82.556L164.916,81.864L161.131,82.218L158.393,81.468L158.735,80.214L157.678,78.415L162.461,77.124L169.435,75.62L171.384,75.62L169.381,77.156L174.536,77.041L174.672,75.137L173.046,73.966L173.074,72.444L172.283,71.149L170.173,70.191L173.305,68.614L177.546,68.517L182.054,67.146L184.288,65.695L188.292,64.28L190.929,63.939L196.79,62.628L198.664,62.828L203.984,61.258L206.724,61.875L206.872,63.203L208.525,62.633L212.187,62.808L211.3,63.488L214.25,63.994L216.908,63.698L220.737,64.632L224.86,64.914L226.228,65.301L229.795,64.818L232.371,65.71L234.456,66.129L238.051,66.847L240.3,68.288L242.45,68.568L245.693,67.313L249.385,66.381L252.476,66.746L257.168,65.437L261.637,64.692L262.074,65.927L264.433,65.231L266.239,63.834L267.532,64.15L269.007,66.822L273.881,64.798L272.188,67.06L275.455,66.574L277.094,65.7L279.742,65.871L282.194,67.126L286.699,68.227L289.488,68.736L291.924,68.543L293.847,70.073L289.361,71.575L293.095,72.228L299.718,71.868L302.114,71.339L303.255,73.161L306.954,71.621L305.529,70.334L307.813,69.302L310.752,69.164L312.847,68.863L314.195,69.583L315.351,71.226L318.139,70.985L321.328,72.351L325.309,71.868L328.686,71.94L329.695,70.058L332.131,69.532L335.068,70.554L333.156,73.429L336.245,71.005L338.072,71.087L341.127,68.054L339.88,66.21L338.019,65.004L340.494,61.735L344.697,59.609L347.347,60.078L348.744,61.372L349.616,64.702L346.604,66.164ZM304.85,56.132L302.539,57.484L308.289,56.61L310.16,58.068L313.947,56.59L315.201,57.538L314.704,60.395L316.819,59.189L317.674,56.22L319.987,55.801L321.827,56.259L323.384,57.426L322.558,60.256L321.659,62.328L324.388,63.794L327.509,65.195L326.304,66.508L322.331,66.751L322.983,67.902L321.403,69.006L317.531,68.532L314.135,67.719L311.307,67.902L306.161,68.925L298.842,69.45L295.536,69.659L295.4,68.237L292.894,67.42L290.566,67.755L289.676,65.387L291.472,65.075L295.447,64.567L298.583,64.697L301.999,64.18L298.136,63.488L293.04,63.723L289.84,63.663L289.573,62.578L295.875,61.397L292.332,61.442L289.045,60.667L292.894,58.48L295.494,57.328L303.061,55.578ZM327.152,55.272L323.646,57.171L321.807,55.16L322.904,54.759L325.979,54.642ZM389.355,56.186L389.089,56.981L386.749,56.898L384.376,56.834L381.685,57.225L381.147,57.049L379.631,55.524L380.38,54.493L381.564,54.304L386.461,54.609ZM366.617,56.025L367.19,57.827L370.783,55.5L377.191,54.328L379.144,57.298L377.64,59.199L382.615,58.353L385.431,57.201L389.561,58.667L391.893,60.058L391.482,61.338L396.055,60.672L397.442,62.543L402.362,63.713L403.771,64.909L404.616,67.704L399.68,69.103L404.255,71.077L407.678,71.744L409.85,74.546L413.49,74.748L411.852,76.9L406.161,80.498L403.763,79.169L401.301,76.202L398.052,76.587L396.955,78.352L398.677,80.156L401.329,81.589L401.97,82.419L402.27,85.519L400.502,87.79L397.765,86.934L392.716,84.412L395.005,87.126L396.765,89.04L396.712,90.149L390.561,88.879L386.094,87.041L383.818,85.508L385.074,84.619L382.202,83.006L379.397,81.494L379.005,82.397L371.763,82.895L370.256,81.822L373.007,79.531L377.544,79.479L382.672,79.08L382.418,77.975L383.997,76.442L388.543,73.455L388.558,72.11L388.178,71.067L385.352,69.603L381.173,68.578L383.072,67.816L381.635,65.957L379.695,65.785L378.45,64.773L376.714,65.654L372.316,66.038L364.319,65.372L359.991,64.496L356.556,64.049L355.322,63.013L358.584,61.666L355.361,61.656L356.636,58.692L360.133,56.108L363.24,54.938L369.501,54.174ZM337.339,54.063L339.514,54.662L343.762,54.299L343.703,55.131L340.578,56.507L343.042,57.749L340.727,60.37L336.184,61.507L334.171,61.258L333.429,60.142L329.538,57.896L330.304,56.971L334.604,57.328L333.607,55.447ZM880.647,55.869L877.284,55.889L872.361,55.568L871.803,55.418L872.663,54.285L875.152,54.024L879.532,55.117ZM350.995,57.137L347.035,59.308L344.535,59.199L344.99,56.653L346.087,55.224L348.162,54.01L350.948,53.235L355.488,53.331L359.212,54.024L354.064,56.575ZM286.226,61.134L278.918,62.598L278.883,61.308L275.085,59.762L276.741,58.81L280.794,56.415L284.555,54.531L284.109,52.789L292.01,52.344L294.593,52.933L300.084,53.091L301.47,53.914L302.754,55.117L299.297,55.84L291.966,57.867L287.328,59.905ZM890.164,50.559L888.995,51.671L885.175,51.418L879.765,50.313L879.181,49.408L883.767,49.827ZM354.722,50.853L352.692,51.943L349.661,51.733L347.575,50.996L349.746,49.737L353.478,48.989L354.612,49.968ZM876.186,49.224L876.95,51.3L868.773,51.224L865.878,51.885L859.47,50.063L858.435,48.156L860.679,47.639L866.549,47.76ZM348.037,46.048L348.602,47.309L347.49,48.722L344.797,50.796L340.949,51.081L338.964,50.635L340.372,49.008L336.619,49.224L338.346,47.091L340.598,47.175L344.671,46.246L347.559,46.402ZM325.799,47.463L325.744,48.441L328.098,47.979L330.26,48.1L329.432,49.455L326.933,50.782L319.126,51.214L312.472,52.435L309.051,52.502L309.623,51.58L315.328,50.342L305.121,50.673L302.54,50.171L308.185,47.467L310.993,46.703L316.167,47.625L318.468,49.262L322.08,49.473L321.451,46.837L324.388,45.845L326.301,46.158ZM691.606,63.133L690.363,63.393L682.737,63.008L681.616,61.701L677.193,60.915L676.258,59.332L678.322,58.712L677.608,57.127L681.023,54.681L678.833,54.328L683.038,51.842L681.864,50.569L686.051,49.097L692.316,47.323L699.233,46.813L702.334,45.799L706.31,45.451L708.454,46.522L707.508,47.374L700.599,48.741L694.643,50.067L689.127,52.741L687.091,55.524L684.78,58.299L686.246,60.722ZM357.115,45.021L358.764,45.891L363.003,45.887L364.148,46.781L362.839,47.811L364.848,48.437L365.738,49.093L368.58,49.215L371.595,49.45L375.487,48.849L380.088,48.61L383.483,48.807L385.113,49.855L384.838,51.01L382.973,51.757L379.292,52.363L376.705,52.019L370.083,52.454L365.519,52.506L362.206,52.157L357.032,51.252L357.453,49.714L358.262,48.339L357.05,47.138L352.861,46.804L351.079,45.96L352.842,44.852ZM312.562,43.555L310.091,45.62L307.461,46.564L305.312,46.698L300.082,47.867L296.176,48.292L293.857,47.695L299.701,45.653L305.989,43.908L309.215,43.948ZM359.886,43.889L358.852,43.966L355.003,43.795L355.101,43.051L359.341,43.092L360.405,43.582ZM325.507,43.415L320.746,44.184L318.49,43.321L321.097,42.478L324.477,42.21L327.037,42.621ZM612.519,43.002L608.003,44.089L604.12,43.47L605.447,42.786L604.005,41.943L608.265,41.415L609.32,42.402ZM329.111,41.036L325.994,41.544L322.496,41.539L322.94,41.168L325.956,40.391L326.951,40.509ZM356.915,42.464L353.279,43.011L352.122,42.393L352.142,41.411L353.019,40.334L355.637,40.439L356.698,40.61L358.365,41.513ZM348.627,41.756L348.404,42.858L345.224,42.563L342.576,41.708L337.964,41.615L340.79,40.838L338.903,40.216L339.796,39.23L343.529,39.58L348.234,40.517ZM782.016,41.805L771.065,42.822L771.553,39.403L772.977,39.118L774.712,39.282L781.553,40.746ZM597.903,38.217L605.164,40.115L600.081,41.137L599.247,43.074L597.47,43.573L596.804,45.804L594.226,45.91L589.392,44.261L591.202,43.312L587.922,42.549L583.553,40.342L581.707,38.341L587.244,37.441L588.505,38.32L591.461,38.286L592.105,37.428L595.127,37.344ZM612.364,36.461L616.663,37.327L613.969,38.679L608,38.98L601.766,38.559L601.245,37.864L598.266,37.818L595.782,36.677L601.988,35.992L605.111,36.581L607.005,35.848ZM665.03,36.116L662.453,36.44L660.703,36.627L660.632,37.033L658.438,37.445L655.898,36.857L656.667,36.087L652.06,36.013L655.83,35.573L658.922,35.54L659.707,36.199L660.556,35.614L662.258,35.217L665.604,35.745ZM769.701,40.312L765.434,40.631L758.882,39.889L754.468,38.911L751.101,37.113L747.792,36.623L751.363,34.96L755.156,34.423L760.5,35.63L767.864,38.022ZM379.18,38.324L380.951,39.139L377.413,39.902L371.833,41.859L367.927,42.045L363.85,41.708L362.547,40.649L363.458,39.711L365.761,39.032L361.931,39.049L360.475,38.209L360.337,37.075L362.939,35.984L365.167,35.245L367.453,35.074L367.17,34.528L372.038,34.407L373.266,35.688L376.186,36.212L379.095,36.677ZM424.494,30.211L429.612,30.383L433.614,30.658L436.718,31.257L436.127,31.85L430.401,32.84L425.131,33.306L422.862,33.831L427.286,33.82L421.327,35.262L417.453,35.947L412.354,37.97L407.752,38.388L406.031,38.903L399.503,39.178L402.133,39.498L400.337,39.954L401.116,41.234L398.454,42.13L394.636,42.876L392.867,43.921L389.307,44.72L389.169,45.332L392.912,45.227L392.5,45.887L385.6,47.528L380.487,46.772L373.831,47.193L370.86,46.864L366.891,46.721L367.653,45.414L372.104,44.807L372.616,42.876L374.067,42.692L378.826,43.84L377.293,42.139L374.288,41.637L376.858,40.627L381.104,40.011L382.472,39.118L380.421,38.128L380.744,36.845L386.278,36.953L387.667,37.222L391.704,36.319L387.344,36.038L380.005,36.195L377.218,35.368L376.543,34.399L374.942,33.708L375.416,32.914L378.921,32.479L381.351,32.406L385.718,32.037L389.643,31.205L391.978,31.317L393.417,31.945L396.311,30.747L399.346,30.397L403.175,30.16L409.318,30.073L410.113,30.302L416.223,29.939L420.348,30.077ZM506.754,29.335L518.513,31.04L514.569,31.896L506.879,31.995L495.995,32.217L496.839,32.622L504.057,32.371L509.846,33.164L513.979,32.46L515.415,33.286L512.807,34.657L518.213,33.776L528.225,32.875L534.195,33.321L535.178,34.327L526.567,36.038L525.3,36.602L518.622,37.029L523.377,37.146L520.601,38.98L518.588,40.645L518.106,43.573L520.364,45.327L516.992,45.437L513.296,46.296L517.024,47.746L517.142,50.101L514.759,50.361L517.214,52.779L512.274,52.981L514.647,54.14L513.756,55.146L510.544,55.587L507.427,55.597L509.886,57.548L509.699,58.839L505.462,57.641L504.159,58.416L507.071,59.145L509.735,60.93L510.214,63.303L506.038,63.874L504.473,62.733L501.962,61.04L502.369,63.038L499.42,64.597L505.455,64.722L508.599,64.883L501.965,67.486L495.202,69.859L488.144,70.903L485.562,70.913L482.868,72.084L478.854,75.308L473.232,77.463L471.551,77.589L468.178,78.347L464.552,79.07L461.989,80.988L461.379,83.181L459.609,85.242L454.957,87.763L455.296,90.246L453.499,92.884L451.417,96.024L447.841,96.22L444.867,93.595L439.89,93.578L438.001,91.822L437.292,88.713L434.304,84.784L433.748,82.741L434.362,79.946L432.05,77.088L433.715,74.826L432.521,73.749L436.151,70.196L440.072,69.072L441.445,67.816L442.773,65.483L439.743,66.538L438.32,66.984L436.084,67.409L433.617,66.432L434.252,64.411L435.775,62.838L437.915,62.793L442.285,63.578L439.071,61.706L437.431,60.702L435.008,61.114L433.412,60.385L437.06,57.675L436.149,56.6L435.244,54.613L433.941,51.609L431.672,50.517L432.264,49.351L427.258,47.732L422.765,47.532L416.911,47.644L411.512,47.849L409.517,46.975L406.847,45.263L413.003,44.415L417.39,44.275L408.709,43.578L404.644,42.496L405.655,41.477L414.492,40.224L423,38.993L424.429,38.077L419.485,37.176L422.021,36.195L430.379,34.508L433.529,34.255L433.504,33.203L438.759,32.595L445.212,32.236L451.388,32.217L453.083,32.929L459.264,31.679L463.493,32.525L466.207,32.704L469.961,33.455L465.905,32.217L466.791,31.257L474.296,29.957L481.168,30.055L484.148,29.275L491.202,29.075Z"></path> <clipPath id="mana-history-land-clip"> <use href="#mana-history-land-shape"></use> </clipPath> </defs> <use class="mana-world-land-soft" href="#mana-history-land-shape"></use> <rect class="mana-world-dot-field" width="1120" height="620" clip-path="url(#mana-history-land-clip)"></rect> <use class="mana-world-outline" href="#mana-history-land-shape"></use> <path class="mana-map-route" pathLength="1" d="M329.2 284.5 C413.2 198.5 431.7 212.5 559.7 124.5"></path> <path class="mana-map-label-line mana-map-label-line--uk" pathLength="1" d="M559.7 124.5 L637.7 120.5"></path> <path class="mana-map-label-line mana-map-label-line--co" pathLength="1" d="M329.2 284.5 L401.2 336.5"></path> <circle class="mana-map-city-dot mana-map-city-dot--uk" cx="559.6611026987655" cy="124.52358594710884" r="7"></circle> <circle class="mana-map-city-dot mana-map-city-dot--co" cx="329.2151080627005" cy="284.50667531890747" r="7"></circle> <foreignObject class="mana-map-flag-object mana-map-flag-object--uk" x="637.7" y="91.5" width="190" height="58" transform="matrix(0.88,0,0,0.88,76.524,36.98)"> <div xmlns="http://www.w3.org/1999/xhtml" class="mana-flag-pin mana-flag-pin--uk mana-flag-pin--svg"> <span class="mana-flag mana-flag--uk" aria-hidden="true"></span> <strong>LONDRES</strong> </div> </foreignObject> <foreignObject class="mana-map-flag-object mana-map-flag-object--co" x="401.2" y="307.5" width="190" height="58" transform="matrix(0.88,0,0,0.88,48.144,62.9)"> <div xmlns="http://www.w3.org/1999/xhtml" class="mana-flag-pin mana-flag-pin--co mana-flag-pin--svg"> <span class="mana-flag mana-flag--co" aria-hidden="true"></span> <strong>MEDELLÍN</strong> </div> </foreignObject> </svg>