<?xml version="1.0" encoding="UTF-8"?>
<svg id="Layer_2" data-name="Layer 2" xmlns="http://www.w3.org/2000/svg" viewBox="0 0 131.34 138.23">
  <defs>
    <style>
      .cls-1 {
        fill: #fff;
      }

      .cls-2 {
        fill: #28a6bd;
      }
    </style>
  </defs>
  <g id="Capa_1" data-name="Capa 1">
    <g>
      <g>
        <path class="cls-1" d="M35.53,103.2h2.66v34.64h-7.4v-18.7l-8.69,10.86h-.94l-8.69-10.86v18.7h-7.4v-34.64h2.71l13.87,16.43,13.87-16.43Z"/>
        <path class="cls-1" d="M67.41,130.19c0,2.02-.1,3.11,2.27,2.96v4.44c-3.21.69-7.85.94-7.85-3.95-1.33,2.96-4.39,4.59-7.55,4.59-7.35-.15-10.76-5.82-10.76-12.58.25-8.04,5.72-12.29,13.77-12.14,3.5.05,6.96.89,10.12,2.22v14.46ZM60.7,119.73c-1.33-.54-2.76-.69-3.95-.69-3.75,0-6.17,2.07-6.32,6.61,0,3.75,1.78,6.51,5.33,6.47,3.31,0,4.79-2.62,4.94-6.22v-6.17Z"/>
        <path class="cls-1" d="M72.83,113.96c3.5-.64,9.08-.99,9.08,3.6,1.53-2.81,4.34-4.05,7.5-4.05,6.71,0,9.52,4.59,9.38,10.51v6.47c0,2.22.1,3.31,2.52,3.16v4.05c-4.69,1.18-9.38.59-9.38-5.33v-8.34c.05-3.31-2.07-5.03-4.59-5.03-2.57-.15-4.98,1.88-4.98,5.18v13.67h-6.91v-16.43c0-2.62.05-3.55-2.62-3.41v-4.05Z"/>
        <path class="cls-1" d="M128.25,130.19c0,2.02-.1,3.11,2.27,2.96v4.44c-3.21.69-7.85.94-7.85-3.95-1.33,2.96-4.39,4.59-7.55,4.59-7.35-.15-10.76-5.82-10.76-12.58.25-8.04,5.72-12.29,13.77-12.14,3.5.05,6.96.89,10.12,2.22v14.46ZM121.54,119.73c-1.33-.54-2.76-.69-3.95-.69-3.75,0-6.17,2.07-6.32,6.61,0,3.75,1.78,6.51,5.33,6.47,3.31,0,4.79-2.62,4.94-6.22v-6.17ZM114.43,109.96v-.64l3.5-7.21,5.92,2.17v.54l-4.15,5.13h-5.28Z"/>
      </g>
      <path class="cls-2" d="M128.79,87.91h-58.62c3.05-6.34,9.53-10.73,17.02-10.73h36.43l-2.55-5.29h-33.87c-7.63,0-14.44,3.56-18.87,9.1v-12.28l12.74-10.36c1.32-1.07,2.07-2.68,2.04-4.38l-.99-53.99h-5.29l1.03,27.36c-3.63.03-6.96,1.37-9.53,3.57v-15.5h-5.29v15.5c-2.58-2.19-5.9-3.53-9.53-3.57l1.03-27.36h-5.29l-.99,53.99c-.03,1.7.72,3.31,2.04,4.38l12.74,10.36v12.28c-4.43-5.54-11.24-9.1-18.87-9.1H10.28l-2.55,5.29h36.43c7.49,0,13.98,4.39,17.02,10.73H2.55l-2.55,5.29h131.34l-2.55-5.29ZM68.31,42.32h0c0-5.29,4.26-9.6,9.53-9.67v9.7c-3.63.03-6.96,1.37-9.53,3.57v-3.59ZM68.31,57.31h0c0-5.29,4.26-9.6,9.53-9.67v6.52l-9.53,7.75v-4.6ZM53.49,32.65c5.27.08,9.53,4.38,9.53,9.67v3.59c-2.58-2.19-5.9-3.53-9.53-3.57v-9.7ZM53.49,54.15v-6.52c5.27.08,9.53,4.38,9.53,9.67v4.6l-9.53-7.75Z"/>
    </g>
  </g>
</svg>