<?xml version="1.0" encoding="UTF-8"?>
<svg id="Layer_2" data-name="Layer 2" xmlns="http://www.w3.org/2000/svg" viewBox="0 0 430.8 385.09">
  <defs>
    <style>
      .cls-1 {
        fill: #1a2740;
      }

      .cls-2 {
        fill: #00a7bd;
      }

      .cls-3 {
        fill: #2ab9d4;
      }

      .cls-4 {
        fill: #009e57;
      }

      .cls-5 {
        fill: #e72261;
      }

      .cls-6 {
        fill: #fdc500;
      }
    </style>
  </defs>
  <g id="Capa_1" data-name="Capa 1">
    <g>
      <path class="cls-1" d="M424.88,372.95h-198.43c6.36-15.1,21.3-25.73,38.69-25.73h147.19l-5.92-12.14h-141.26c-22.28,0-41.46,13.55-49.73,32.83-8.28-19.29-27.45-32.83-49.73-32.83H24.4l-5.92,12.14h147.19c17.39,0,32.33,10.63,38.69,25.73H5.92L0,385.09h430.8l-5.92-12.14Z"/>
      <g>
        <path class="cls-6" d="M43.34,293.7c-3.26,3.61-7.88,5.41-13.84,5.41s-10.58-1.8-13.84-5.41c-3.26-3.61-4.89-8.32-4.89-14.15v-114.25c0-5.69,1.63-10.33,4.89-13.94,3.26-3.61,7.87-5.41,13.84-5.41s10.58,1.8,13.84,5.41c3.26,3.61,4.89,8.26,4.89,13.94v38.92h20.39l30.18-48.91c1.94-3.19,4.06-5.55,6.35-7.08,2.29-1.52,5.44-2.29,9.47-2.29,5.27,0,9.75,1.8,13.42,5.41,3.67,3.61,5.52,7.84,5.52,12.69,0,3.89-.83,7.01-2.5,9.37l-31.84,47.86,33.51,49.95c1.8,2.91,2.71,6.04,2.71,9.36,0,4.99-1.94,9.33-5.83,13.01-3.89,3.68-8.46,5.52-13.74,5.52-3.89,0-7.01-.8-9.36-2.39-2.36-1.59-4.51-4.06-6.45-7.39l-32.05-49.53h-19.77v39.75c0,5.83-1.63,10.55-4.89,14.15Z"/>
        <path class="cls-5" d="M183.89,191.9c-4.23,4.03-9.88,6.04-16.96,6.04s-12.77-2.01-17.06-6.04c-4.3-4.02-6.45-9.5-6.45-16.44s2.15-12.38,6.45-16.34c4.3-3.95,9.99-5.93,17.06-5.93s12.56,1.98,16.86,5.93c4.3,3.95,6.45,9.4,6.45,16.34s-2.12,12.42-6.35,16.44ZM180.88,313.22c-3.19,3.61-7.77,5.41-13.74,5.41s-10.61-1.84-13.94-5.52c-3.33-3.67-4.99-8.36-4.99-14.05v-69.72c0-5.69,1.63-10.33,4.89-13.94,3.26-3.61,7.94-5.41,14.05-5.41s10.54,1.77,13.74,5.31c3.19,3.54,4.79,8.22,4.79,14.05v69.72c0,5.83-1.6,10.55-4.79,14.15Z"/>
        <path class="cls-3" d="M246.15,298.01c-14.85,0-26.74-5.2-35.69-15.61-8.95-10.41-13.42-23.86-13.42-40.37s4.33-30.7,13.01-40.89c8.67-10.2,20.57-15.3,35.69-15.3,5.69,0,10.89.94,15.61,2.81,4.72,1.87,8.18,4.2,10.41,6.97h.42v-39.54c0-5.69,1.66-10.37,4.99-14.05,3.33-3.67,7.98-5.52,13.94-5.52s10.54,1.8,13.74,5.41c3.19,3.61,4.79,8.32,4.79,14.15v95.31c0,5.97,1.52,10.61,4.58,13.94,4.99,4.3,7.49,8.95,7.49,13.94,0,5.41-1.8,9.89-5.41,13.42-3.61,3.54-8.74,5.31-15.4,5.31s-11.9-1.84-15.71-5.52c-3.82-3.67-6.07-7.39-6.76-11.13h-.42c-6.38,11.1-17,16.65-31.84,16.65ZM255.1,265.34c6.1,0,10.82-1.98,14.15-5.93,3.33-3.95,4.99-9.81,4.99-17.58s-1.7-13.42-5.1-17.38c-3.4-3.95-8.15-5.93-14.26-5.93s-10.69,2.08-14.15,6.24c-3.47,4.16-5.2,9.92-5.2,17.27s1.77,12.9,5.31,17.07c3.54,4.16,8.29,6.24,14.26,6.24Z"/>
        <path class="cls-4" d="M372.16,276.01c-17.76,0-31.22-3.19-40.37-9.57-5.69-3.88-8.53-8.81-8.53-14.78,0-3.88,1.18-7,3.54-9.37s5.48-3.54,9.36-3.54c2.91,0,7.8,1.63,14.67,4.89,6.87,3.26,13.14,4.89,18.83,4.89,8.32,0,12.49-2.15,12.49-6.45,0-3.33-3.33-5.96-9.99-7.91-1.39-.42-3.82-1.04-7.28-1.87-.83-.28-1.53-.48-2.08-.62-11.38-2.77-20.33-6.8-26.85-12.07-6.52-5.27-9.78-12.83-9.78-22.68s4.13-18,12.38-24.04c8.25-6.04,19.53-9.05,33.82-9.05s25.81,2.71,34.55,8.12c6.24,3.75,9.36,8.26,9.36,13.53,0,4.72-1.7,8.22-5.1,10.51-3.4,2.29-7.67,2.95-12.8,1.98-1.25-.28-4.75-1.42-10.51-3.43-5.76-2.01-10.44-3.02-14.05-3.02s-6.04.38-7.7,1.14c-1.67.76-2.5,2.33-2.5,4.68,0,2.5,1.32,4.34,3.95,5.52,2.63,1.18,7.14,2.46,13.53,3.85.28,0,.52.04.73.1.21.07.42.14.62.21.21.07.45.1.73.1,4.02.97,7.35,1.84,9.99,2.6,2.63.76,5.83,2.01,9.57,3.75,3.75,1.74,6.73,3.71,8.95,5.93,2.22,2.22,4.16,5.17,5.83,8.85,1.66,3.68,2.5,7.88,2.5,12.59,0,10.27-3.92,18.7-11.76,25.29-7.84,6.59-19.87,9.88-36.11,9.88Z"/>
      </g>
    </g>
    <g>
      <path class="cls-2" d="M148.59,101.44h-67.64c3.51-7.31,11-12.38,19.64-12.38h42.03l-2.94-6.1h-39.08c-8.8,0-16.66,4.11-21.77,10.5v-14.17l14.7-11.95c1.52-1.23,2.38-3.1,2.35-5.05l-1.14-62.29h-6.1l1.19,31.57c-4.19.04-8.03,1.58-11,4.11v-17.89h-6.1v17.89c-2.97-2.53-6.81-4.07-11-4.11l1.19-31.57h-6.1l-1.14,62.29c-.03,1.96.83,3.82,2.35,5.05l14.7,11.95v14.17c-5.11-6.39-12.97-10.5-21.77-10.5H11.86l-2.94,6.1h42.03c8.64,0,16.12,5.06,19.64,12.38H2.94l-2.94,6.1h151.54l-2.94-6.1ZM78.82,48.83h0c0-6.1,4.92-11.07,11-11.16v11.19c-4.19.04-8.03,1.58-11,4.11v-4.14ZM78.82,66.12h0c0-6.1,4.92-11.07,11-11.16v7.52l-11,8.94v-5.3ZM61.72,37.67c6.08.09,11,5.06,11,11.16v4.15c-2.97-2.53-6.81-4.07-11-4.11v-11.19ZM61.72,62.48v-7.52c6.08.09,11,5.06,11,11.16v5.31l-11-8.94Z"/>
      <g>
        <path class="cls-1" d="M237.25,19.18h5.43v70.59h-15.08v-38.11l-17.7,22.12h-1.91l-17.7-22.12v38.11h-15.08V19.18h5.53l28.25,33.48,28.25-33.48Z"/>
        <path class="cls-1" d="M302.2,74.18c0,4.12-.2,6.33,4.63,6.03v9.05c-6.54,1.41-15.99,1.91-15.99-8.04-2.71,6.03-8.95,9.35-15.38,9.35-14.98-.3-21.92-11.86-21.92-25.64.5-16.39,11.66-25.04,28.05-24.74,7.14.1,14.18,1.81,20.61,4.52v29.46ZM288.53,52.87c-2.72-1.11-5.63-1.41-8.04-1.41-7.64,0-12.57,4.22-12.87,13.47,0,7.64,3.62,13.27,10.86,13.17,6.74,0,9.75-5.33,10.06-12.67v-12.57Z"/>
        <path class="cls-1" d="M313.26,41.1c7.14-1.31,18.5-2.01,18.5,7.34,3.12-5.73,8.85-8.25,15.28-8.25,13.67,0,19.41,9.35,19.1,21.42v13.17c0,4.52.2,6.74,5.13,6.44v8.24c-9.55,2.41-19.11,1.21-19.11-10.86v-16.99c.1-6.74-4.22-10.26-9.35-10.26-5.23-.3-10.16,3.82-10.16,10.56v27.85h-14.08v-33.48c0-5.33.1-7.24-5.33-6.94v-8.24Z"/>
        <path class="cls-1" d="M426.17,74.18c0,4.12-.2,6.33,4.63,6.03v9.05c-6.54,1.41-15.99,1.91-15.99-8.04-2.71,6.03-8.95,9.35-15.38,9.35-14.98-.3-21.92-11.86-21.92-25.64.5-16.39,11.66-25.04,28.05-24.74,7.14.1,14.18,1.81,20.61,4.52v29.46ZM412.5,52.87c-2.72-1.11-5.63-1.41-8.04-1.41-7.64,0-12.57,4.22-12.87,13.47,0,7.64,3.62,13.27,10.86,13.17,6.74,0,9.75-5.33,10.06-12.67v-12.57ZM398.02,32.96v-1.31l7.14-14.68,12.07,4.42v1.11l-8.45,10.46h-10.76Z"/>
      </g>
    </g>
  </g>
</svg>