<?xml version="1.0" encoding="UTF-8"?>
<svg xmlns="http://www.w3.org/2000/svg" viewBox="0 0 131.34 93.2" role="img" aria-labelledby="title">
  <title id="title">Ministerio Maná</title>
  <path fill="#28A6BD" d="M128.79,87.91h-58.62c3.05-6.34,9.53-10.73,17.02-10.73h36.43l-2.55-5.29h-33.87c-7.63,0-14.44,3.56-18.87,9.1v-12.28l12.74-10.36c1.32-1.07,2.07-2.68,2.04-4.38l-.99-53.99h-5.29l1.03,27.36c-3.63.03-6.96,1.37-9.53,3.57v-15.5h-5.29v15.5c-2.58-2.19-5.9-3.53-9.53-3.57l1.03-27.36h-5.29l-.99,53.99c-.03,1.7.72,3.31,2.04,4.38l12.74,10.36v12.28c-4.43-5.54-11.24-9.1-18.87-9.1H10.28l-2.55,5.29h36.43c7.49,0,13.98,4.39,17.02,10.73H2.55l-2.55,5.29h131.34l-2.55-5.29ZM68.31,42.32h0c0-5.29,4.26-9.6,9.53-9.67v9.7c-3.63.03-6.96,1.37-9.53,3.57v-3.59ZM68.31,57.31h0c0-5.29,4.26-9.6,9.53-9.67v6.52l-9.53,7.75v-4.6ZM53.49,32.65c5.27.08,9.53,4.38,9.53,9.67v3.59c-2.58-2.19-5.9-3.53-9.53-3.57v-9.7ZM53.49,54.15v-6.52c5.27.08,9.53,4.38,9.53,9.67v4.6l-9.53-7.75Z"/>
</svg>
