<?xml version="1.0" encoding="UTF-8"?>
<svg id="Layer_2" data-name="Layer 2" xmlns="http://www.w3.org/2000/svg" viewBox="0 0 228.91 93.35">
  <defs>
    <style>
      .cls-1 {
        fill: none;
        stroke: #fff;
        stroke-miterlimit: 10;
      }
    </style>
  </defs>
  <g id="Capa_1" data-name="Capa 1">
    <g>
      <path class="cls-1" d="M113.15,27.3c.59.06,1.18.16,1.78.17,7.16.13,14.33.05,21.48.42,6.05.31,12.09.98,18.1,1.78,3.33.44,6.58,1.47,10.38,2.35-.69,1.1-.98,1.87-1.52,2.36-3.6,3.25-7.82,5.43-12.41,6.95-5.66,1.88-11.53,2.76-17.41,3.49-4.34.54-8.75.67-13.13.73-4.44.06-8.91.1-13.31-.4-4.42-.51-8.84-1.44-13.13-2.63-10.28-2.86-20.52-5.88-30.72-9.03-11.28-3.49-22.5-7.18-33.73-10.82-1.58-.51-3.05-1.39-4.63-1.91-2.64-.87-5.17-.2-7.63.86"/>
      <path class="cls-1" d="M17.11,24.29c.41,1.66.9,3.3,1.23,4.97.87,4.49,1.66,8.99,2.5,13.49.94,5.03,1.87,10.06,2.85,15.09.74,3.79,1.51,7.58,2.33,11.36.11.51.47,1.08.88,1.41,2.97,2.36,6.35,4.05,9.95,5.1,2.8.82,5.77,1.15,8.68,1.46,3.54.38,7.1.73,10.65.69,4.48-.06,8.85-.87,12.79-3.3,3.65-2.25,7.47-1.77,11.36-.57,4.11,1.27,8.29,2.36,12.42,3.58,6.42,1.88,11.99.03,17.03-3.93,1.24-.98,2.3-2.2,3.38-3.36,1.74-1.87,3.77-2.91,6.4-2.85,4.26.08,8.37.96,12.42,2.17,3.04.91,5.77.76,8.25-1.88-.64-.9-1.37-1.68-1.81-2.59-.35-.72-.35-1.62-.57-2.75,4.38.87,8.45,1.9,12.7-.87-2.28-.98-4.29-1.86-6.46-2.8,1.51-2.08,3.61-2.05,5.31-2.77,3.83-1.61,7.45-3.45,10.49-6.96-.92,0-1.52-.17-1.97.03-2.92,1.31-5.96,2.45-8.67,4.12-3.51,2.15-7.38,3.14-11.23,4.16-4.33,1.14-8.73,2.05-13.13,2.84-2.62.47-5.31.61-7.98.73-3.61.16-7.22.23-10.83.18-7.69-.11-15.37-.78-22.51-3.79-4.39-1.85-8.45-4.51-12.63-6.85-1.46-.82-2.75-2.09-4.29-2.57-1.9-.59-4.04-.95-6-.72-4.98.59-9.2-.94-12.76-4.2-2.84-2.59-5.36-5.53-8.02-8.31-1.8-1.87-3.69-3.32-6.57-3.27-2,.04-3.6-1.34-4.96-2.78-.55-.58-1-1.26-1.35-2.29,1.81.53,3.65.97,5.42,1.6,7.82,2.8,15.59,5.79,23.45,8.47,7.93,2.7,15.94,5.21,23.96,7.64,5.76,1.74,11.56,3.34,17.4,4.77,2.34.57,4.84.53,7.27.77,3.08.3,6.15.73,9.23.86,6.51.27,13.02.43,19.53.55,7.43.13,14.06-2.85,20.77-5.49,3.07-1.21,6.17-2.4,8.69-4.63,1.78-1.58,3.43-3.31,5.17-4.95.55-.52,1.18-.95,1.77-1.43"/>
      <path class="cls-1" d="M40.54,81.81c.3.47.53,1,.9,1.41,4.13,4.57,9.33,6.96,15.44,7.47,4.14.34,8.29.68,12.43,1.07,9.72.93,19.36.2,28.93-1.47,6.31-1.1,12.54-2.64,18.83-3.85,10.53-2.02,20.53-5.71,30.54-9.42,6.88,5.23,13.37,5.68,20.75,3.7,3.71-1,7.2-2.57,10.48-4.59,5.3-3.27,12.33-6.54,14.35-12.44.31-.91.52-1.88.39-2.83-.37-2.57-3.03-4.15-5.54-4.82-2.26-.61-4.67-.79-6.95-.23-5.19,1.29-8.86,6.47-9.33,11.8s1.84,10.63,5.3,14.71c2.17,2.56,4.8,4.74,7.72,6.39,6.61,3.73,14.52,4.68,22.07,3.87,7.55-.81,14.81-3.27,21.89-6.02"/>
      <path class="cls-1" d="M37.34,75.95c2.17,1.98,4.97,2.53,7.64,3.37,6.95,2.17,14.11,3.38,21.31,4.21,5.65.65,11.35.86,17.04,1.09,4.02.16,8.06.22,12.07-.02,4.1-.24,8.19-.76,12.25-1.41,4.52-.72,9-1.73,13.49-2.62.13.23.26.46.34.61,1.02-.38,2.02-.81,3.05-1.14,2.36-.74,4.69-1.83,7.11-2.05,3.82-.35,7.35-1.64,11-2.58,1.07-.27,2.11-.71,3.2-.86,4.65-.67,6.51-4.33,8.51-7.84,5.11-8.93,10.2-17.86,15.26-26.81,1.44-2.56,2.74-5.2,4.09-7.81.16-.31.21-.68.42-1.4-2.01-.5-3.85-1.11-5.75-1.41-4.37-.68-8.74-1.31-13.14-1.78-4.9-.53-9.82-.89-14.73-1.26-4.55-.34-9.11-.58-13.67-.91-2.61-.19-5.21-.67-7.81-.62-1.43.03-3.06.56-4.22,1.4-2.53,1.85-5.2,1.58-8.04,1.43-1.52-.08-3.16.42-4.6,1.02-7.56,3.19-15.34,5.71-23.27,7.79-.14.04-.24.23-.36.34"/>
      <path class="cls-1" d="M121.32,81.28c-6.69,2.5-13.58,4.31-20.6,5.44-3.79.61-7.68.63-11.53.76-7.34.24-14.68.49-22.01.51-4.63.01-9.34.07-13.83-1.25-3.33-.98-6.55-2.36-9.77-3.71-1.55-.65-2.97-1.63-4.45-2.45"/>
      <path class="cls-1" d="M77.29,36.71c3.43.36,6.86,1,10.3,1.02,20.48.1,40.95.05,61.43.04.59,0,1.18-.11,1.78-.17"/>
      <path class="cls-1" d="M153.63,37.78c-2.43-.59-4.83-1.36-7.28-1.74-4.36-.67-8.74-1.29-13.13-1.6-8.41-.58-16.81-.12-25.21.47-3.48.25-6.99.19-10.47.41-1.26.08-2.48.58-3.73.84-.27.06-.59-.1-.88-.16"/>
      <path class="cls-1" d="M19.06,44.7c-2.64-1.01-3.25-3.15-3.2-5.68.02-1.06.06-2.13-.01-3.19-.07-1.07-.1-2.22-1.61-2.74-.78.39-1.67.96-2.64,1.28-.64.21-1.79.31-2.03-.02-.39-.53-.52-1.66-.2-2.21.82-1.41,1.84-2.75,2.98-3.91,1.56-1.57,3.32-2.95,4.87-4.31-.46-4.17-.95-8.2-1.33-12.23-.21-2.24-.29-4.49-.36-6.75-.06-1.72.57-3.2,1.53-4.43,2.23-.11,2.93,1.46,3.36,2.85.61,1.93,1.12,4.01,1.06,6.01-.14,5.34.46,10.58,1.48,15.8,1.43,7.28,2.66,14.6,4.31,21.83,1.66,7.27,3.66,14.47,5.67,21.66.6,2.15,1.73,4.15,2.62,6.23"/>
      <path class="cls-1" d="M170.5,33.34c-1.24,2.43-2.42,4.89-3.74,7.27-3.95,7.16-7.45,14.58-12.43,21.12-2.45,3.21-4.9,6.45-7.7,9.35-1.24,1.29-3.32,1.81-5.08,2.55-2.99,1.25-6.03,2.38-9.04,3.58-.16.07-.24.34-.36.52"/>
      <path class="cls-1" d="M16.75,22.16c-1.48.83-3.11,1.47-4.4,2.53-2.42,1.99-4.76,4.11-6.92,6.39-1.5,1.58-2.78,3.43-3.91,5.31-1.65,2.76-1.2,5.81.69,8.14,1.85,2.29,3.71,4.57,5.69,6.74,4.63,5.07,9.3,10.11,14.04,15.08,1.12,1.18,2.58,2.04,3.88,3.04"/>
      <path class="cls-1" d="M3.61,33.87c.41,2.28,1.32,3.04,3.73,3.01,1.3-.01,2.6-.11,3.91-.17.98-.05,1.77.27,2.12,1.25.5,1.35.91,2.73,1.44,4.08.4,1.03.92,2.02,1.36,2.98,1-.14,1.59-.23,2.18-.31"/>
      <path class="cls-1" d="M26.69,70.8c.13,2.92,1.45,5.47,2.71,7.96,1.99,3.93,5.04,7.13,8.54,9.7,1.81,1.34,4.31,1.76,6.51,2.57.75.28,1.54.48,2.31.72"/>
      <path class="cls-1" d="M110.49,28.01c-.41.3-.8.65-1.25.88-3.72,1.91-7.45,3.79-11.17,5.7-.17.09-.24.34-.36.52"/>
    </g>
  </g>
</svg>