<?xml version="1.0" encoding="UTF-8"?>
<svg id="Layer_2" data-name="Layer 2" xmlns="http://www.w3.org/2000/svg" viewBox="0 0 137.4 477.63">
  <defs>
    <style>
      .cls-1 {
        fill: none;
        stroke: #ad569b;
        stroke-miterlimit: 10;
        stroke-width: 1.63px;
      }
    </style>
  </defs>
  <g id="Capa_2" data-name="Capa 2">
    <g>
      <path class="cls-1" d="M46.11,198.01c-.13,1.61-.16,3.23-.4,4.82-1.29,8.64-1.85,17.32-1.92,26.05-.03,4.37-.25,8.75-.16,13.12.19,9.6.35,19.21,1.71,28.75,1.36,9.52,2.54,19.07,4.09,28.55,2.09,12.76,4.19,25.53,6.8,38.2,2.23,10.83,5.02,21.55,7.87,32.23,2.84,10.64,6.13,21.18,10.65,31.23,3.17,7.05,6.09,14.27,10.88,20.52,3.23,4.21,7.17,6.64,12.57,6.55,3.96-.07,7.41,1.46,10.61,3.65"/>
      <path class="cls-1" d="M31.26,439.21c-.64-.06-1.29-.18-1.93-.18-5.27-.02-10.55.02-15.82-.02-1.64-.01-3.06.47-4.24,1.57-3.17,2.95-5.66,6.42-7.3,10.43-.51,1.25-.69,2.68-.78,4.04-.21,3.27-.43,6.56-.37,9.84.05,2.83.45,5.66.75,8.49.06.55.4,1.07.69,1.79,6.16.3,12.27.69,18.38.89,8.36.27,16.72.51,25.08.58,18.2.14,36.39.23,54.59.18,7.52-.02,15.05-.43,22.57-.75,3.67-.15,7.33-.47,11-.76,1.76-.14,2.27-.74,2.31-2.5.13-5.02.29-10.03.38-15.05.13-6.93-2.86-12.45-7.92-16.96-.55-.49-1.39-.93-2.1-.94-4.5-.09-9-.04-13.5-.04"/>
      <path class="cls-1" d="M54.02,194.54c-.13,2.38-.26,4.76-.39,7.14-.32,5.98-.76,11.96-.93,17.95-.16,5.59-.18,11.2,0,16.79.24,7.53.66,15.06,1.14,22.58.56,8.75,1.22,17.5,1.92,26.24.5,6.18,1.12,12.35,1.73,18.52.48,4.96.98,9.91,1.55,14.86,1.21,10.49,3.13,20.84,6.54,30.88,3.1,9.13,6.12,18.28,9.28,27.39,3.08,8.89,6.29,17.75,10.8,26.05,2.69,4.95,5.58,9.8,9.28,14.07,1.61,1.86,3.22,3.87,5.75,4.66"/>
      <path class="cls-1" d="M60.39,192.41c-.26,7.85-.65,15.69-.73,23.54-.07,6.62.2,13.25.35,19.87.1,4.18.28,8.36.37,12.54.21,9.78.17,19.56.65,29.33.5,10.24,1.43,20.46,2.28,30.68.38,4.64.84,9.29,1.56,13.89,1.07,6.78,2.3,13.53,3.66,20.26.99,4.92,2.09,9.84,3.48,14.66,2.24,7.77,6,14.92,9.84,21.99,2.27,4.18,4.92,8.16,7.5,12.17,2.13,3.31,5.08,5.78,8.47,7.73"/>
      <path class="cls-1" d="M23.93,243.93c.13,2.83.2,5.66.4,8.49.34,5.02.71,10.04,1.16,15.05.45,4.96.94,9.92,1.55,14.86.54,4.39,1.31,8.74,1.89,13.13.35,2.63.49,5.28.8,7.91.34,2.96.81,5.91,1.13,8.88.32,3.02.52,6.05.79,9.07.38,4.18.78,8.36,1.15,12.54.16,1.86.29,3.73.39,5.6.27,5.08.53,10.16.77,15.24.27,5.53.54,11.06.77,16.59.17,4.11.34,8.23.38,12.35.06,7.46.21,14.93-.05,22.38-.18,5.16-.9,10.3-1.5,15.44-.39,3.36-.92,6.71-1.56,10.03-.27,1.4-1,2.7-1.58,4.2.29.8.6,1.71,1.04,2.94-.07.4-.21,1.17-.36,2.04.36,1.39,1.31,2.05,2.87,2.04,1.86-.01,3.73.11,5.59.17"/>
      <path class="cls-1" d="M65.21,249.14c-.32,4.05-.83,8.1-.93,12.16-.2,7.97-.4,15.96-.15,23.92.17,5.48.91,10.96,1.7,16.4.97,6.65,2.04,13.31,3.48,19.87,2.47,11.25,4.86,22.56,9.45,33.18,5.17,11.97,11.43,23.37,19.06,33.97.34.47.89.78,1.34,1.17"/>
      <path class="cls-1" d="M106.11,27.82c2.75-1.02,4.37-3.22,5.77-5.6,1.73-2.93,3.57-5.81,4.97-8.9,1.29-2.84,2.05-5.91,3.1-9.05-1.35-2.02-3.79-1.54-5.74-1.65-10.21-.55-20.44-.85-30.67-1.23-3.73-.14-7.46-.31-11.19-.38-6.3-.11-12.6-.18-18.9-.19-4.37,0-8.75.04-13.12.2-5.15.18-10.29.46-15.43.77-2.83.17-5.66.46-8.49.77-2.04.22-2.81,1.06-2.48,3.07.95,5.68,1.91,11.41,5.04,16.37,1.47,2.33,3.53,4.3,5.37,6.38.23.26.75.28,1.14.4"/>
      <path class="cls-1" d="M132.73,451.56c-3.86.19-7.72.36-11.57.58-25.26,1.46-50.54.57-75.81.72-9.13.05-18.26-.42-27.39-.74-4.7-.16-9.39-.5-14.08-.76"/>
      <path class="cls-1" d="M41.29,327.49c.96,4.89,1.62,9.86,2.96,14.64,2.18,7.73,4.61,15.4,7.32,22.96,2.48,6.92,5.4,13.69,8.25,20.47,3.13,7.43,6.29,14.86,9.66,22.18,3.05,6.64,6.26,13.21,9.68,19.66,1.31,2.47,3.27,4.6,5.7,6.24,2.67,1.8,6.87,2.27,9.9-.17,2.2-1.77,5.03-2.14,7.86-1.96.14,0,.26.36.39.56"/>
      <path class="cls-1" d="M37.24,207.85c-.32,1.09-.49,2.26-.99,3.27-1.45,2.87-1.67,5.99-2.1,9.08-.36,2.58-.81,5.14-1.14,7.72-.31,2.44-.63,4.88-.76,7.33-.39,7.21-.35,14.41.33,21.61.61,6.48.88,12.99,1.4,19.48.51,6.37,1.06,12.74,1.74,19.1.82,7.66,1.73,15.32,2.7,22.96.53,4.13,1.26,8.24,1.93,12.35.04.22.37.39.56.58"/>
      <path class="cls-1" d="M37.05,337.52c.45,2.38.93,4.75,1.34,7.14.86,5.01,1.57,10.05,2.54,15.04,1.17,6,2.19,12.07,3.92,17.92,2.2,7.44,4.85,14.77,7.69,22,2.57,6.55,5.66,12.95,10.03,18.5,4.22,5.36,8.94,10.34,13.44,15.48,1.86,2.13,3.67,4.3,5.61,6.35,2.22,2.34,5.07,2.82,8.07,2.09,1.04-.25,1.94-1.11,2.91-1.68.57-.34,1.16-.65,1.73-.97"/>
      <path class="cls-1" d="M75.63,193.96c.52,9.98.93,19.97-.59,29.91-1.16,7.6-2.35,15.2-3.67,22.77-1.44,8.26-2.83,16.5-3.28,24.89-.42,7.69-.27,15.35.85,22.96.49,3.33,1.61,6.57,2.45,9.85"/>
      <path class="cls-1" d="M96.46,107.9c4.51.74,8.34,2.71,11.39,6.17,2.02,2.29,2.97,5.1,3.59,7.93,1.15,5.25,1.72,10.61,1.58,16-.11,4.38-.54,8.75-.73,13.12-.19,4.37-.36,8.75-.37,13.12-.01,3.28.19,6.56.37,9.84.21,3.8.56,7.59.75,11.39.22,4.38-1.5,8.34-2.91,12.34-.54,1.54-1.39,2.97-2.09,4.45"/>
      <path class="cls-1" d="M37.82,107.13c-2.64,1.16-5.31,2.24-7.9,3.49-4.56,2.21-6.16,6.39-7.16,10.98-2.02,9.25-1.36,18.63-1.58,27.98-.11,4.57-.72,9.13-1.11,13.7-.12,1.42-.27,2.83-.38,4.25-.39,5.21-.78,10.42-1.16,15.63-.19,2.53.12,5.03,1.19,7.32,1.38,2.95,2.99,5.8,4.5,8.7"/>
      <path class="cls-1" d="M83.92,103.27c1.75-1.16,4.36-1.18,5.78,0,.62.52,1.26,1.08,1.72,1.74.69.99,1.51,1.36,2.72,1.4.76.03,1.5.65,1.91.85.14,3.15-1.25,5.68.5,8.6,2.98,4.97,4.43,10.6,5.32,16.34.72,4.63.66,9.26.18,13.9-.05.51,0,1.03,0,1.54,0,6.37.05,12.74-.01,19.1-.09,9.11,1.03,18.04,3.47,26.83,1.33,4.8,2.56,9.62,3.64,14.48.51,2.32.53,4.75.82,7.13.36,2.96.67,5.93,1.18,8.87.38,2.19,1.26,4.32-.39,6.4-.33.42-.29,1.13-.42,1.71"/>
      <path class="cls-1" d="M45.54,122.18c1.61,5.72,3.19,11.46,4.83,17.17,2.4,8.38,4.91,16.73,8.51,24.69,2.92,6.46,6.87,12.15,13.3,15.61,2.02,1.09,4.32,1.67,6.32,2.79,1.27.71,2.63,1.8,3.24,3.06,2.08,4.3,3.26,8.93,3.91,13.67.03.24-.24.51-.37.77"/>
      <path class="cls-1" d="M95.11,112.91c-1.11.36-.56,1.1-.38,1.74.96,3.54,1.95,7.07,2.88,10.62,1.06,4.05,1.36,8.17,1.17,12.35-.34,7.52-.92,15.05-.88,22.58.03,5.15.8,10.31,1.49,15.43.65,4.85,1.64,9.65,2.45,14.48.05.3-.11.64-.18.96"/>
      <path class="cls-1" d="M111.7,229.46c.32,1.09.83,2.17.93,3.28.46,5.27,1.17,10.55,1.09,15.82-.09,5.36-1.84,10.37-6.09,14.07-1.76,1.53-1.52,3.75-2.29,5.62-.58,1.4-1.2,2.8-1.62,4.25-.42,1.44-.56,2.96-.9,4.43-1.85,7.92-3.78,15.81-5.56,23.74-.85,3.76-1.73,7.56-2.05,11.39-.26,3.11.25,6.3.5,9.45.16,2,.4,4.01.78,5.98.77,4,1.68,7.97,2.48,11.97.75,3.72,1.36,7.47,2.14,11.19,1.12,5.31.89,10.68.69,16.02-.18,4.71-.97,9.39-1.47,14.09-.34,3.15-.65,6.3-1,9.66,1.55,1.77,1.61,3.75.51,6.02-.37.76.34,2.01.48,3.05.12.89.53,2.06.14,2.66-1.99,3.03-1.01,6.08-.29,9.11.49,2.03,1.28,3.99,1.89,5.99.37,1.21.46,2.54,1.03,3.64.6,1.15,1.45,2.31,2.49,3.07,1.98,1.43,3.49,3.1,4.22,5.45.19.6.41,1.23.78,1.73,1.45,1.91,1.04,3.84.18,5.8"/>
      <path class="cls-1" d="M40.13,114.84c-.71,3.92-1.51,7.83-2.09,11.78-.38,2.61-.63,5.27-.57,7.91.13,6.63.71,13.25.67,19.88-.04,6.53-.34,13.06-1.81,19.5-.8,3.47-1.04,7.07-1.61,10.6-.28,1.75-.75,3.48-1.14,5.21"/>
      <path class="cls-1" d="M81.99,197.62c.13,1.54.11,3.12.41,4.63.95,4.65,1.98,9.28,3.07,13.9,1.43,6.01,4.21,11.5,6.95,16.97,3.35,6.7,6.55,13.46,8.63,20.67,1.51,5.21,2.09,10.58,2.17,16.01.01.87.36,1.74.55,2.61"/>
      <path class="cls-1" d="M97.23,142.63c-.32,2.19-.88,4.37-.92,6.56-.22,10.16-.46,20.33-.37,30.49.06,6.56,1.48,12.98,3.25,19.29.99,3.52,2.28,6.96,3.44,10.43"/>
      <path class="cls-1" d="M41.1,134.91c.32,4.31.65,8.62.96,12.93.27,3.86.6,7.71.75,11.58.21,5.46.43,10.94.36,16.4-.06,5.28-.53,10.55-.71,15.82-.11,3.36.67,4.02,4.03,4.07.93.01,1.86.24,2.8.37"/>
      <path class="cls-1" d="M16.99,9.87c2.57,0,5.14.04,7.72-.02,1.42-.03,2.83-.34,4.24-.35,14.27-.15,28.55-.39,42.82-.36,8.81.02,17.62.44,26.43.74,5.98.2,11.96.5,17.94.76"/>
      <path class="cls-1" d="M34.73,176.98c-1.03,3.15-1.96,6.34-3.11,9.45-2.23,6.02-3.39,12.31-4.77,18.54-.79,3.57-1.33,7.19-1.95,10.8-.46,2.66-.38,5.21,2.28,7.22-.68.58-1.13,1.13-1.71,1.44-3.6,1.9-4.54,6.02-1.68,9.53-.27.79-.54,1.62-.82,2.45"/>
      <path class="cls-1" d="M38.98,380.74c.32,4.89.61,9.78.98,14.66.33,4.38.76,8.75,1.15,13.12.52,5.92.88,11.85,1.6,17.75.42,3.45.73,7.03,2.84,10.04.13.18.35.3.61.52.46-.32.88-.61,1.31-.9"/>
      <path class="cls-1" d="M92.6,45.38c-.89-2.39-2.85-3.62-5.02-4.63-4.34-2.04-8.96-2.81-13.7-3.08-2.83-.16-5.66-.45-8.49-.35-6.83.24-13.63.9-20.05,3.46-2.29.92-4.71,1.85-5.79,4.41-.89,2.11-.13,4.67,1.73,5.97.61.43,1.28.78,1.92,1.16"/>
      <path class="cls-1" d="M93.76,134.14c-.71,4.5-1.54,8.99-2.09,13.51-1,8.09-1.78,16.21-2.75,24.31-.46,3.87-1.03,7.74-1.76,11.57-.4,2.14-1.3,2.7-3.43,2.9"/>
      <path class="cls-1" d="M43.99,135.68c.84,3.79,1.62,7.6,2.52,11.38,1.37,5.74,2.68,11.49,4.27,17.17,1.73,6.16,3.24,12.45,7.12,17.74.66.9,1.57,1.67,2.5,2.31,2.33,1.61,4.74,3.11,7.12,4.65"/>
      <path class="cls-1" d="M89.9,124.11c-1.41,6.24-2.69,12.51-4.29,18.71-1.41,5.45-2.96,10.89-4.84,16.2-1.71,4.83-3.99,9.44-7.46,13.34"/>
      <path class="cls-1" d="M34.73,153.05c-.13,4.12.11,8.29-.48,12.34-.68,4.63-1.91,9.2-3.23,13.7-1.82,6.23-3.82,12.4-5.97,18.52-1.99,5.67-3.16,11.5-4.23,17.37-.71,3.9-1.09,7.77-1.03,11.78.12,6.88-.28,13.76-.5,20.64-.08,2.37.5,4.49,1.94,6.37,1.03,1.35,2.06,2.7,3.09,4.05"/>
      <path class="cls-1" d="M42.45,105.58c1.24.17,2,.84,2.74,1.9,4.06,5.84,9.29,10.28,15.96,12.98,4.77,1.92,9.31,1.63,13.91-.58,5.48-2.63,10.32-6,13.88-11.02"/>
      <path class="cls-1" d="M46.31,104.42c-1.09-.06-2.21,0-3.27-.22-2.34-.46-4.07.24-5.3,2.4.32.48.63.95,1.01,1.52-3.66,6.68-4.71,14.09-6.11,21.39-.94,4.9-.79,9.79.49,14.68.6,2.29.55,4.75.85,7.12.06.47.37.9.56,1.35"/>
      <path class="cls-1" d="M70.61,193.96c.13,1.8.31,3.6.38,5.4.3,8.08-1.06,15.99-2.28,23.93-.65,4.22-1.05,8.49-1.57,12.73"/>
      <path class="cls-1" d="M40.33,111.56c-1.03,3.34-2.28,6.64-3.03,10.05-.94,4.26-1.58,8.59-2.13,12.92-.24,1.89.12,3.85.13,5.78.03,3.86.02,7.72,0,11.58,0,.26-.24.51-.37.77"/>
      <path class="cls-1" d="M38.98,403.13c-.39,6.75-.86,13.5-1.12,20.26-.14,3.72.88,7.3,2.09,10.8q1.42,4.13,3.54,6.02c.65-.5,1.35-1.04,2.06-1.58"/>
      <path class="cls-1" d="M101.28,189.91c.26,2.83.38,5.68.81,8.49.57,3.75,1.09,7.55,2.16,11.18,1.46,4.97,3.4,9.8,5.14,14.69.52,1.48,1.03,2.96,1.54,4.44"/>
      <path class="cls-1" d="M43.03,105.97c0,.32-.11.7.02.96,4.14,8.25,10.36,14.42,18.5,18.74,4.43,2.35,8.63,1.73,12.73-.78.59-.36,1.16-.77,1.74-1.15"/>
      <path class="cls-1" d="M35.12,202.45c.84-.77,1.55-1.88,2.53-2.24,1.77-.65,3.74-.72,5.56-1.27,1.79-.54,3.51-1.32,5.21-2.1,2.28-1.04,4.41-2.53,6.78-3.17,2.56-.69,4.99-1.47,7.35-2.72,1.39-.74,2.99.3,4.39.91,1.21.53,2.33,1.25,3.81,2.05,1.66-.43,3.6-.92,5.53-1.42-.02-.11-.04-.23-.05-.34.45.09,1.04.02,1.31.29,3,2.99,5.93,6.03,8.9,9.04.8.81,1.59,1.65,2.52,2.3,2.6,1.82,3.18,4.93,4.76,7.38,2.87,4.46,4.82,9.54,8.76,13.25,3.09,2.92,3.47,6.72,3.56,10.45.19,7.58-.06,15.18-.12,22.77-.02,2.06,0,4.12,0,6.17"/>
      <path class="cls-1" d="M82.96,121.79c-.84,1.35-1.58,2.77-2.52,4.04-2.39,3.23-4.61,6.63-7.9,9.08-1.82,1.36-3.98,1.68-6.14,2.24-3.13.81-4.95-.71-6.77-2.63-2.04-2.15-4-4.36-5.99-6.55"/>
      <path class="cls-1" d="M45.92,404.67c.32,2.12.62,4.25.97,6.37.94,5.67,1.73,11.39,4.43,16.6,1.8,3.47,4.72,5.16,8.1,4.63"/>
      <path class="cls-1" d="M63.28,438.63c-.87,1.31-1.74,2.61-2.74,4.11.12.72.27,1.68.43,2.64,2.42,2.02,6.84.9,8.05-2.14.38-.97.5-2.27.18-3.24-.9-2.76-4.24-5.61-7.66-4.69-3.24.87-6.55,1.44-9.83,2.16-2.09.46-2.97,2.31-2.88,4.24.08,1.71,1.82,3.37,3.65,3.68,1.68.28,3.34.8,5.02.9,1.07.06,2.18-.45,3.28-.71"/>
      <path class="cls-1" d="M55.37,83.2c-.13.39-.44.82-.36,1.15.95,3.91.66,7.85.33,11.78-.4,4.86-2.55,7.29-7.1,8.72-1.24.39-2.33,1.25-3.48,1.89"/>
      <path class="cls-1" d="M52.48,76.25c-.42.27-.83.55-.9.59.25,3.32.4,6.29.75,9.25.17,1.44.55,2.92,1.17,4.22.56,1.17.77,2.19.13,3.3-1.07,1.88-2.17,3.74-3.28,5.59-.18.3-.46.62-.77.76-2.04.93-4.11,1.82-6.17,2.72"/>
      <path class="cls-1" d="M46.69,166.17c.19.39.53.76.56,1.16.29,3.99.32,8,.87,11.95.41,2.94,1.23,5.9,2.33,8.66.7,1.75,2.08,3.05,4.54,3.06,1.74.01,3.47.37,5.21-.14"/>
      <path class="cls-1" d="M27.79,265.35c.19,4.57.33,9.14.6,13.7.24,4.06.63,8.11.95,12.16"/>
      <path class="cls-1" d="M68.68,45.76c-3.6,2.19-7.33,4.19-10.76,6.62-2.75,1.95-5.67,3.02-8.9,2.57-2.42-.34-3.75.37-4.45,2.59"/>
      <path class="cls-1" d="M43.03,59.66c-1.17,1.56-.61,3.37-.49,5.01.11,1.53.92,3.02,1.51,4.78-.51,1.36-.44,3.12.38,4.66.78,1.46-.27,2.47-.43,3.69-.57,4.45-1.45,8.89.17,13.32.31.86.4,1.8.64,2.96-2.08,2.12-2.53,4.85-1.66,7.89-.5.64-.98,1.26-1.47,1.88"/>
      <path class="cls-1" d="M88.36,53.1c.71,2.59,2.28,5.06,1.15,7.91-.45,1.12-1.01,2.19-1.63,3.53v2.96c-.43.52-.96,1.15-1.45,1.73,0,2.79.15,5.5-.04,8.19-.19,2.72-.73,5.41-1.12,8.11-.12.84-.53,1.74-.33,2.5.51,2,.84,3.96.34,6-.06.24-.12.64,0,.75,2.33,1.97,1.08,5.05,2.3,7.35"/>
      <path class="cls-1" d="M49.2,77.22c-.77,2.44-1.56,4.88-2.3,7.34-.11.35-.08.78,0,1.15.43,1.94,1.01,3.84,1.28,5.8.11.79-.36,1.71-.73,2.49-1.06,2.21-1.93,4.44-1.52,6.96"/>
      <path class="cls-1" d="M87.78,48.27c-2.43-1.53-4.73-3.15-7.91-2.98-1.77.09-3.58-.76-5.4-1.06-5.6-.94-11.2-.69-16.49.11-3.47,2.45-6.69,4.75-9.95,7-.48.33-1.14.41-1.72.6"/>
      <path class="cls-1" d="M49.39,71.62c1.72.23,2.7,1.11,3.13,2.88.54,2.23,1.19,4.47,2.12,6.55,2.24,5.05,8.64,9.34,14.43,8.69.65-.07,1.35-.12,1.92-.4,5.15-2.49,8.55-6.41,9.69-12.1,2.92-1.59,3.47-4.69,4.29-7.41.49-1.64-.42-3.49-1.82-4.79"/>
      <path class="cls-1" d="M47.66,15.28c-.39-.39-.77-.77-1.16-1.16.06-.06.13-.12.19-.18-.84-.2-1.67-.54-2.51-.56-2.61-.07-4.67,1.9-4.79,4.8-.21,4.95.91,9.58,3.82,13.71.98,1.39,2.15,2.42,3.87,2.69"/>
      <path class="cls-1" d="M77.75,84.74c-.06,1.93-.16,3.86-.19,5.79-.04,2.9.14,5.77,1.33,8.5.94,2.15,2.41,3.7,4.65,4.42,1.8.58,3.04,1.72,4.07,3.28,1.19,1.8,2.55,3.49,3.84,5.22"/>
      <path class="cls-1" d="M50.55,13.54c-.19,1.16-.51,2.31-.56,3.47-.17,4.7.88,9.17,3.12,13.28.64,1.18,2,1.96,3.03,2.93"/>
      <path class="cls-1" d="M108.03,233.32c1.42,4.14,2.28,8.4,2.66,12.74.21,2.43.04,4.89.04,7.33"/>
      <path class="cls-1" d="M75.24,46.54c-1.82-.52-3.64-.92-5.39.15-1.12,3.15-4,4.11-6.58,5.44-2.63,1.36-5.31,2.63-7.88,4.1-.74.42-1.37,1.29-1.73,2.09-1,2.27-1.89,4.6-2.7,6.94-.27.77-.16,1.66-.22,2.5"/>
      <path class="cls-1" d="M81.8,131.44c-1.54,2.38-2.99,4.83-4.66,7.12-1.61,2.21-3.17,4.6-5.24,6.32-4.09,3.41-8.68,3.28-12.06-1.31-1.63-2.22-2.87-4.73-4.28-7.11"/>
      <path class="cls-1" d="M62.51,13.54c-.42,4.51-.58,9,.16,13.51.37,2.25,1.19,4.26,2.35,6.17"/>
      <path class="cls-1" d="M52.29,32.84c-3.52-3.21-4.55-7.43-5.28-11.95-.89-5.58,3.84-9.05,7.98-9.22,1.14-.05,2.39.44,3.45.96.87.43,1.54,1.27,2.39,2.01,1.98-1.82,3.75-4.15,6.89-3.39,1.3.31,2.55.85,3.72,1.25,1.08,7.43,1.48,14.32-2.11,20.72h-9.9"/>
      <path class="cls-1" d="M38.78,108.28c2.25,2.46,2.86,5.54,3.05,8.69.14,2.43-.11,4.89-.15,7.33-.03,2.25,0,4.5,0,6.75"/>
      <path class="cls-1" d="M93.76,14.89c2.83,3.73,1.57,7.71.51,11.56-.51,1.84-1.86,3.44-2.6,5.24-.85,2.06-2.52,3.16-4.28,4.23"/>
      <path class="cls-1" d="M71.77,306.26c1.06,4.08,2.82,7.89,4.35,11.8,1.07,2.73,2.34,5.19,4.33,7.3"/>
      <path class="cls-1" d="M81.8,79.72c-.47,3.1-.65,6.18.15,9.27.21.83.08,1.84-.18,2.68-.93,3-.9,5.85,1.03,8.54.54.11,1.12.22,1.7.34"/>
      <path class="cls-1" d="M32.23,19.91c-1.09-.35-2.06-1.11-3.31-.04-1.57,1.34-1.22,2.96-.9,4.47,1.37,6.41,4.39,11.7,10.57,14.68.28.14.52.38.78.57"/>
      <path class="cls-1" d="M66.75,181.22c2.38,2.3,4.93,2.89,9.41,2.1,1.71,1.04,2.53,2.47,2.01,4.67-.31,1.31-.29,2.69-.42,4.04"/>
      <path class="cls-1" d="M34.73,15.66c-.45.84-.82,1.73-1.37,2.5-1.59,2.24-.64,4.52-.16,6.76.68,3.19,1.94,6.12,4.01,8.7,1.27,1.58,2.62,2.95,4.65,3.46"/>
      <path class="cls-1" d="M84.12,16.05c.81,5.3.15,10.33-2.92,14.84-.73,1.08-1.78,1.95-2.68,2.91"/>
      <path class="cls-1" d="M71.77,13.15c.71.44,1.42.89,2.26,1.41,1.47-1.64,3.15-2.93,5.65-2.8,3.26.18,7.47,3.7,7.4,7.56-.09,5.14-1.03,9.89-4.12,14.08"/>
      <path class="cls-1" d="M92.6,443.07c1.16-1.99,2.28-4.01,3.48-5.98.97-1.59,2.55-3.22,4.21-2.97,4.59.7,9.43,1.24,12.71,5.35-.34,1.23-.53,2.36-.95,3.39-.95,2.35-3.19,2.25-5.19,2.51-.96.12-1.96,0-2.88.23-1.78.44-3.39-.08-5.02-.61-1.61-.52-3.19-1.33-4.83-1.46-1.9-.15-3.85.41-5.78.47-2.83.1-5.66.02-8.49.02h-11"/>
      <path class="cls-1" d="M101.09,17.98c2,3.18,1.98,6.58.95,10.03-1.26,4.24-3.47,7.82-7.31,10.25-.52.33-.91.88-1.36,1.33"/>
      <path class="cls-1" d="M59.42,15.28c.13,1.61.35,3.22.37,4.82.04,3.93.54,7.76,2.14,11.38"/>
      <path class="cls-1" d="M100.7,16.63c1.86,1.07,3.84,2.01,4.63,4.25.84,2.39,1.11,4.89.54,7.32-1.46,6.28-5.22,10.9-10.77,14.09"/>
      <path class="cls-1" d="M27.6,22.03c-2.72,1.66-2.47,4.46-1.83,6.73,1.74,6.15,5.44,10.9,11.47,13.54"/>
      <path class="cls-1" d="M69.26,48.47c1.76,2.52,4.41,3.87,6.94,5.42,2.45,1.5,4.27,3.52,5.71,6.1.83,1.48,2.72,2.37,4.14,3.53"/>
      <path class="cls-1" d="M31.65,195.12c-.96,4.12-1.95,8.23-2.88,12.35-.17.75-.14,1.54-.21,2.31"/>
      <path class="cls-1" d="M74.86,16.63c.58,4.93-.42,9.64-1.93,14.28.39.77.77,1.54,1.16,2.31"/>
      <path class="cls-1" d="M32.61,219.62c-.71,1.87-1.29,3.79-2.15,5.58-1.17,2.44-2.61,4.74-3.79,7.17-.38.78-.36,1.78-.4,2.68-.03.77.39,1.66.12,2.29-.97,2.3-2.29,4.46-3.18,6.79-.75,1.97-1.08,4.1-1.59,6.16"/>
      <path class="cls-1" d="M97.23,19.91c-.05,4.39-1.38,8.39-3.9,11.93-.69.97-1.89,1.57-2.85,2.35"/>
      <path class="cls-1" d="M92.6,192.8c.32,2.77.11,5.74,1.1,8.24,1.17,2.93,2.66,5.66,2.59,8.93,0,.32.36.64.55.96"/>
      <path class="cls-1" d="M92.41,113.49c.26,1.35.66,2.69.74,4.05.17,2.7.16,5.4.22,8.1"/>
      <path class="cls-1" d="M69.26,33.22c2.38.19,4.77.32,7.14.59,4.48.51,8.79,1.55,12.96,3.39,1.94.86,3.42,2.09,4.77,3.56,1.08,1.17,1.17,3.34.18,4.6-.66.84-.91,1.66-.99,2.72-.1,1.4-1.08,2.37-2.27,3.09-.96.59-1.92,1.18-2.81,1.72-.48-1.1-.96-2.18-1.44-3.27"/>
      <path class="cls-1" d="M90.29,143.02c-1.29,3.86-2.57,7.72-3.86,11.58"/>
      <path class="cls-1" d="M94.72,313.4c-.64,1.09-1.46,2.12-1.9,3.29-1.16,3.1-3.14,5.63-5.24,8.09"/>
      <path class="cls-1" d="M57.11,44.61c-2.98-.04-5.79.79-8.47,1.97-1.44.63-2.82,1.51-4.01,2.53-.46.39-.31,1.48-.44,2.25"/>
      <path class="cls-1" d="M60.97,31.87c-2.64,2.41-6.13,2.15-9.27,2.84-4.12.9-7.99,2.23-11.57,4.48-3.38,2.13-3.8,4.43-1.15,6.96"/>
      <path class="cls-1" d="M40.71,14.12c-1.35.26-2.7.5-4.05.77-3.2.64-6.27,1.55-8.89,3.65-1.22.98-2.27,1.99-2.3,3.68"/>
      <path class="cls-1" d="M73.31,132.21c-2.27,1.32-4.6,2.4-7.33,1.73-1.04-.26-2.06-.63-3.09-.95"/>
      <path class="cls-1" d="M72.54,79.72c-1.67-.06-3.34-.19-5.02-.17-1.22.02-2.44.27-3.67.34-.38.02-.77-.23-1.16-.36"/>
      <path class="cls-1" d="M82.19,61.01c-.06.32-.27.7-.17.96,1.79,4.35.48,8.54-.59,12.75-.16.62-.14,1.28-.21,1.93"/>
      <path class="cls-1" d="M35.12,438.44c.39.58.66,1.29,1.18,1.71,2.85,2.32,6.1,3.57,9.82,3.5,1.09-.02,2.19,0,3.28,0"/>
      <path class="cls-1" d="M52.87,46.15c-2.7,1.61-5.48,3.11-8.08,4.86-2.07,1.4-2.49,3.56-1.96,5.95.17.76.23,1.55.4,2.77.91-.64,1.61-1.13,2.31-1.62"/>
      <path class="cls-1" d="M65.02,62.55c-2.92-1.6-5.87-2.34-8.87-.19-.1.07-.13.25-.2.38"/>
      <path class="cls-1" d="M43.61,199.17c-.81,4.28-3.54,6.98-7.35,8.65-2.15.94-4.31,1.8-5.94,3.54-.44.47-.54,1.26-.8,1.9"/>
      <path class="cls-1" d="M72.16,434.77c.26,1.03.62,2.05.75,3.09.24,2.06.91,3.93,2.15,5.59"/>
      <path class="cls-1" d="M52.87,10.26c-2.7.26-5.4.51-8.1.77"/>
      <path class="cls-1" d="M80.06,45.57c2.51,2.25,5.02,4.5,7.52,6.75"/>
      <path class="cls-1" d="M79.49,62.74c-2.16-1.86-4.87-1.92-7.91-.19"/>
      <path class="cls-1" d="M47.08,66.6c-1.41.46-1.59,1.39-1.18,2.71.48,1.52.79,3.08,1.18,4.62"/>
      <path class="cls-1" d="M101.28,17.21c-.15.18-.3.36-.56.68-.16-.39-.32-.77-.48-1.14.13-.19.25-.38.38-.57-2.22-.49-4.45-.96-6.67-1.48-.79-.19-1.54-.52-2.32-.76-2.07-.62-3.95-.59-5.21,1.54"/>
      <path class="cls-1" d="M80.26,53.48c2.44,1.29,4.89,2.57,7.33,3.86"/>
      <path class="cls-1" d="M90.87,112.14c-.58,2.44-1.16,4.89-1.74,7.33"/>
      <path class="cls-1" d="M64.05,65.83c-.51-.39-1.03-.77-1.29-.96-1.35,0-2.46-.12-3.53.04-.86.13-1.68.6-2.51.93"/>
      <path class="cls-1" d="M89.52,112.14c-1.54,2.44-3.09,4.89-4.63,7.33"/>
      <path class="cls-1" d="M72.54,147.26c-1.61.39-3.2.91-4.83,1.09-.66.08-1.41-.58-2.11-.9"/>
      <path class="cls-1" d="M51.71,62.17c-.51.39-1.09.71-1.53,1.17-1.61,1.67-3.31,1.99-5.41.95"/>
      <path class="cls-1" d="M95.5,206.31c-.71-.51-1.38-1.08-2.13-1.53-1.24-.76-2.35-1.95-4.04-1.36"/>
      <path class="cls-1" d="M20.07,229.27c.64,1.87,1.28,3.73,1.94,5.59.07.21.25.39.38.58"/>
      <path class="cls-1" d="M74.66,185.85c0,.06-.02.14,0,.19,1.59,3.05,1.58,3.1-.58,5.6"/>
      <path class="cls-1" d="M49.39,66.22c-1.83.68-1.81,1.9-1.19,3.49.53,1.36.9,2.8,1.16,4.24.24,1.34.74,2.35,2.15,2.7"/>
      <path class="cls-1" d="M58.27,129.51c1.67.9,3.34,1.8,5.02,2.7"/>
      <path class="cls-1" d="M108.42,257.63c-.32,1.61-.64,3.22-.96,4.82"/>
      <path class="cls-1" d="M109,442.49c-.69.14-1.38.29-2.07.43-.12-.13-.24-.26-.35-.4-.41.83-.83,1.65-1.24,2.48"/>
      <path class="cls-1" d="M76.79,51.94c-1.54-.9-3.09-1.8-4.63-2.7"/>
      <path class="cls-1" d="M28.17,211.32c-.64,2.89,1.31,4.96,2.32,7.33.17.4.38.77.58,1.16"/>
      <path class="cls-1" d="M101.86,438.63c1.35,1.22,2.7,2.44,4.05,3.67"/>
      <path class="cls-1" d="M64.63,73.94c.07.45.14.91.23,1.48.62-.22,1.06-.38,1.69-.6.3.32.64.68.98,1.05"/>
      <path class="cls-1" d="M56.72,441.72c-.06,1.35-.13,2.7-.19,4.05"/>
      <path class="cls-1" d="M105.72,229.46c1.67,2.06,3.34,4.12,5.02,6.17"/>
      <path class="cls-1" d="M33.58,192.41c-.13,1.16-.26,2.32-.39,3.47"/>
      <path class="cls-1" d="M60.97,186.63l3.47.58"/>
      <path class="cls-1" d="M79.1,65.83c-1.14-.29-2.05-1.98-3.47-.58"/>
      <path class="cls-1" d="M75.24,65.45c-.5-.22-1.01-.43-1.58-.68-.64.36-1.26.71-1.89,1.06"/>
      <path class="cls-1" d="M100.13,17.4c-1.29-.36-2.49-.28-3.47.77"/>
      <path class="cls-1" d="M54.79,442.11c-.39,1.09-.77,2.19-1.16,3.28"/>
      <path class="cls-1" d="M19.88,10.45c-.71.96-1.41,1.93-2.12,2.89"/>
      <path class="cls-1" d="M45.15,196.66c-1.03.39-2.06.77-3.09,1.16"/>
      <path class="cls-1" d="M70.61,65.45c-1.15,1.11-.21,2.63-.77,3.86"/>
      <path class="cls-1" d="M102.83,20.87c.9.71,1.8,1.42,2.7,2.12"/>
      <path class="cls-1" d="M27.4,260.72v2.7"/>
      <path class="cls-1" d="M50.74,99.41c-.19.9-.39,1.8-.58,2.7"/>
      <path class="cls-1" d="M82.96,77.41c.26.77.51,1.54.77,2.32"/>
      <path class="cls-1" d="M110.35,440.18c.45.77.9,1.54,1.35,2.32"/>
      <path class="cls-1" d="M52.09,440.95c-.32.71-.64,1.42-.96,2.12"/>
      <path class="cls-1" d="M71.38,74.9c-.37.08-.74.16-1.11.23-.03-.09-.05-.18-.08-.28-.5.34-1.01.67-1.51,1.01"/>
      <path class="cls-1" d="M33.58,438.25c-.64.26-1.29.51-1.93.77"/>
      <path class="cls-1" d="M65.98,191.84v2.12"/>
      <path class="cls-1" d="M51.13,32.84c-.19.64-.39,1.29-.58,1.93"/>
      <path class="cls-1" d="M93.37,37.27c-.64.26-1.29.51-1.93.77"/>
      <path class="cls-1" d="M108.81,229.08c.32.58.64,1.16.96,1.74"/>
      <path class="cls-1" d="M52.09,188.17l1.74,1.74"/>
      <path class="cls-1" d="M108.03,440.56c.39,1.03.77,2.06,1.16,3.09"/>
      <path class="cls-1" d="M103.02,131.05c-.06.58-.13,1.16-.19,1.74"/>
      <path class="cls-1" d="M27.02,258.41v1.54"/>
      <path class="cls-1" d="M45.92,93.23c-.32.13-.64.26-.96.39"/>
      <path class="cls-1" d="M90.29,36.12c.13.45.26.9.39,1.35"/>
    </g>
  </g>
</svg>