<?xml version="1.0" encoding="UTF-8"?>
<svg id="Layer_2" data-name="Layer 2" xmlns="http://www.w3.org/2000/svg" viewBox="0 0 38.02 27.92">
  <defs>
    <style>
      .cls-1 {
        fill: #ad569b;
      }
    </style>
  </defs>
  <g id="Capa_2" data-name="Capa 2">
    <g>
      <path class="cls-1" d="M37.38,26.62h-17.14l.09-.21c.89-2.12,2.96-3.5,5.26-3.5h9.98l-.64-1.31h-9.35c-2.81,0-5.34,1.67-6.44,4.25l-.14.32-.14-.32c-1.11-2.58-3.64-4.25-6.44-4.25H3.08l-.64,1.31h9.98c2.3,0,4.36,1.37,5.26,3.5l.09.21H.64l-.64,1.31h38.02l-.64-1.31Z"/>
      <path class="cls-1" d="M19.01,20.38l7.34-7.34c.84-.84,1.36-1.96,1.47-3.15.11-1.23-.24-2.46-.98-3.46l-.08-.1,1.92-1.92,2.53,2.53.94-.94-2.53-2.53,2.22-2.22-.94-.94-2.22,2.22-2.53-2.53-.94.94,2.53,2.53-1.92,1.92-.1-.07c-.8-.57-1.73-.9-2.7-.95-.73-.04-1.47.09-2.15.36-.63.26-1.2.63-1.69,1.12l-.15.16-.15-.16c-.96-.96-2.24-1.49-3.59-1.49s-2.63.53-3.59,1.49c-.96.96-1.49,2.24-1.49,3.59s.53,2.63,1.49,3.59l7.34,7.34ZM12.61,6.79c.71-.71,1.65-1.1,2.65-1.1s1.94.39,2.65,1.1l1.09,1.09,1.09-1.09c.36-.36.78-.64,1.25-.83.5-.2,1.05-.29,1.59-.27.6.03,1.21.22,1.75.55l.16.1-5.03,5.03.94.94,5.04-5.04.1.16c.44.69.65,1.53.58,2.35-.08.88-.46,1.7-1.08,2.32l-6.4,6.4-6.4-6.4c-1.46-1.46-1.46-3.84,0-5.3Z"/>
    </g>
  </g>
</svg>