<?xml version="1.0" encoding="UTF-8"?>
<svg id="Layer_2" data-name="Layer 2" xmlns="http://www.w3.org/2000/svg" viewBox="0 0 136.9 40.09">
  <defs>
    <style>
      .cls-1 {
        fill: #ac569b;
      }
    </style>
  </defs>
  <g id="Capa_2" data-name="Capa 2">
    <g>
      <g>
        <rect class="cls-1" x="62.14" y="29.04" width="74.19" height="1.03"/>
        <g>
          <path class="cls-1" d="M78.03,1.96h.86v9.3h-2.42v-4.28l-1.97,2.07h-.28l-1.97-2.07v4.28h-2.42V1.96h.86l3.68,4.01,3.67-4.01Z"/>
          <path class="cls-1" d="M80.8,8.2V1.99h2.42v6.16c0,.77.68,1.1,1.36,1.1.65,0,1.34-.33,1.34-1.1V1.99h2.4v6.21c0,2.08-1.8,3.18-3.75,3.18s-3.77-1.1-3.77-3.18Z"/>
          <path class="cls-1" d="M96.63,8.2c0,2.03-1.67,3.19-3.58,3.19s-3.51-1.17-3.51-3.19v-1.21h2.25v1.17c0,.74.54,1.09,1.24,1.09s1.17-.34,1.17-1.09v-4.09h-1.36V1.99h3.79v6.21Z"/>
          <path class="cls-1" d="M104.33,4.09h-3.36v1.32h3.1v2.12h-3.1v1.51h3.48v2.21h-5.91V1.99h5.79v2.11Z"/>
          <path class="cls-1" d="M113.98,10.9v.34h-2.57l-1.59-2.9h-1.27v2.9h-2.42V1.97c1.38,0,2.71-.01,4.08,0,2.24,0,3.34,1.66,3.34,3.28-.01,1.06-.46,2.08-1.38,2.7l1.81,2.94ZM110.19,6.37c.68,0,1.01-.58,1.01-1.17s-.32-1.13-1.01-1.13h-1.68v2.29h1.68Z"/>
          <path class="cls-1" d="M121.12,4.09h-3.36v1.32h3.1v2.12h-3.1v1.51h3.48v2.21h-5.91V1.99h5.79v2.11Z"/>
          <path class="cls-1" d="M124.75,8.41c0,.64.73.95,1.47.95.69,0,1.42-.32,1.42-.87,0-.89-1.03-.93-1.71-.97-1.7-.11-3.39-.78-3.39-2.71s1.71-3.03,3.6-3.03c1.79,0,3.6,1.02,3.56,3.03h-2.26c-.01-.64-.61-.9-1.26-.9-.54,0-1.26.15-1.26.85,0,.62.53.77,1.42.86,1.97.17,3.7.64,3.7,2.89,0,1.95-1.89,2.97-3.79,2.97s-3.84-.98-3.8-3.06h2.3Z"/>
          <path class="cls-1" d="M72.39,23.98h-2.19l-.36-.61c-.81.44-1.7.65-2.56.64-2.42-.04-4.65-1.79-4.65-4.77s1.92-4.82,4.75-4.82c2.37,0,4.74,1.62,4.74,4.82,0,1.1-.25,2-.72,2.73l.97,1.66v.36ZM67.4,21.76c1.15,0,2.32-.83,2.32-2.52s-1.17-2.52-2.33-2.52-2.32.86-2.32,2.52,1.14,2.52,2.33,2.52Z"/>
          <path class="cls-1" d="M73.59,20.82v-6.21h2.42v6.16c0,.77.68,1.1,1.36,1.1.65,0,1.34-.33,1.34-1.1v-6.16h2.4v6.21c0,2.08-1.8,3.18-3.75,3.18s-3.77-1.1-3.77-3.18Z"/>
          <path class="cls-1" d="M88.8,16.71h-3.36v1.32h3.1v2.12h-3.1v1.51h3.48v2.21h-5.91v-9.27h5.79v2.11Z"/>
          <path class="cls-1" d="M98.02,14.51c1.91,0,4,1.03,4.36,3.51h-2.33c-.33-.95-1.03-1.32-2.03-1.32-1.4,0-2.32,1.01-2.32,2.54,0,1.34.9,2.52,2.32,2.52,1.01,0,1.8-.46,2.05-1.47h2.33c-.36,2.64-2.41,3.68-4.38,3.68-2.37,0-4.74-1.59-4.74-4.71s2.37-4.74,4.74-4.74Z"/>
          <path class="cls-1" d="M111.69,23.52v.34h-2.57l-1.59-2.9h-1.27v2.9h-2.42v-9.27c1.38,0,2.71-.01,4.08,0,2.24,0,3.34,1.66,3.34,3.28-.01,1.06-.46,2.08-1.38,2.7l1.81,2.94ZM107.9,18.99c.68,0,1.01-.58,1.01-1.17s-.32-1.13-1.01-1.13h-1.68v2.29h1.68Z"/>
          <path class="cls-1" d="M118.83,16.71h-3.36v1.32h3.1v2.12h-3.1v1.51h3.48v2.21h-5.91v-9.27h5.79v2.11Z"/>
          <path class="cls-1" d="M126.41,16.71h-3.36v1.32h3.1v2.12h-3.1v1.51h3.48v2.21h-5.91v-9.27h5.79v2.11Z"/>
          <path class="cls-1" d="M130.62,19.1v4.78h-2.42v-9.31h.75l4.83,4.57v-4.53h2.42v9.3h-.72l-4.87-4.81Z"/>
        </g>
        <g>
          <path class="cls-1" d="M64.53,36.93l.76-1.28.77-1.24h.67v.09l-1.9,3.03v2.17h-.63v-2.17l-1.91-3.04v-.08h.69l.77,1.23.76,1.29h.02Z"/>
          <path class="cls-1" d="M72.65,34.41c1.62,0,2.57,1.19,2.57,2.64s-.95,2.65-2.57,2.65h-1.87v-5.29h1.87ZM72.64,39.12c1.21,0,1.96-.88,1.96-2.07s-.75-2.06-1.96-2.06h-1.22v4.13h1.22Z"/>
          <path class="cls-1" d="M80.14,34.96h-2.44v1.73h2.36v.55h-2.36v1.87h2.52v.58h-3.16v-5.29h3.07v.55Z"/>
          <path class="cls-1" d="M85.54,37.92c0,1.17-.87,1.85-1.99,1.85s-1.93-.7-1.93-1.85v-.55h.6v.54c0,.84.54,1.28,1.34,1.28s1.35-.46,1.35-1.28v-2.95h-1.29v-.56h1.93v3.51Z"/>
          <path class="cls-1" d="M88.21,38.39l-.62,1.31h-.66v-.08l2.46-5.23h.29l2.44,5.23v.08h-.65l-.62-1.31h-2.64ZM88.42,37.84h2.22l-1.11-2.47-1.11,2.47Z"/>
          <path class="cls-1" d="M94.23,35.7l.05,1.45v2.55h-.63v-5.3h.22l3.45,4-.07-1.52v-2.48h.63v5.3h-.2l-3.45-4Z"/>
          <path class="cls-1" d="M103.4,39.13h2.49v.57h-3.13v-5.29h.63v4.72Z"/>
          <path class="cls-1" d="M110.54,34.96h-2.44v1.73h2.36v.55h-2.36v1.87h2.52v.58h-3.16v-5.29h3.07v.55Z"/>
          <path class="cls-1" d="M114.78,34.33c1.04,0,2.05.48,2.35,1.59h-.62c-.28-.76-.94-1.01-1.73-1.01-1.23,0-2,.94-2,2.14s.77,2.14,2,2.14c1.09,0,1.87-.58,1.96-1.73h-1.88v-.54h2.46c.02.48-.03.95-.2,1.38-.39.97-1.28,1.48-2.34,1.48-1.5,0-2.64-1.09-2.64-2.73s1.16-2.71,2.64-2.71Z"/>
          <path class="cls-1" d="M119.6,38.39l-.62,1.31h-.66v-.08l2.46-5.23h.29l2.44,5.23v.08h-.65l-.62-1.31h-2.64ZM119.81,37.84h2.22l-1.11-2.47-1.11,2.47Z"/>
          <path class="cls-1" d="M126.92,34.41c1.62,0,2.57,1.19,2.57,2.64s-.95,2.65-2.57,2.65h-1.87v-5.29h1.87ZM126.91,39.12c1.21,0,1.96-.88,1.96-2.07s-.75-2.06-1.96-2.06h-1.22v4.13h1.22Z"/>
          <path class="cls-1" d="M133.68,39.78c-1.49,0-2.67-1.04-2.67-2.73s1.2-2.74,2.68-2.74,2.68,1.06,2.68,2.74-1.1,2.73-2.69,2.73ZM133.68,39.2c1.16,0,2.06-.86,2.06-2.15s-.88-2.16-2.05-2.16-2.05.86-2.05,2.16.88,2.15,2.04,2.15Z"/>
        </g>
        <g>
          <path class="cls-1" d="M26.5,40.09h28.07l-1.11-2.28h-24.1c1.19-2.83,4-4.83,7.26-4.83h14.49l-1.11-2.28h-13.38c-4.18,0-7.78,2.54-9.33,6.16-1.55-3.62-5.15-6.16-9.33-6.16H4.58l-1.11,2.28h14.49c3.26,0,6.06,1.99,7.26,4.83H1.11l-1.11,2.28h26.5Z"/>
          <g>
            <g>
              <rect class="cls-1" x="25.66" y="8.09" width="22.61" height="2.31" transform="translate(4.29 28.84) rotate(-45)"/>
              <rect class="cls-1" x="39.84" y="-1.01" width="2.31" height="12.44" transform="translate(8.32 30.51) rotate(-45)"/>
            </g>
            <path class="cls-1" d="M27.29,29.48l-10.55-10.55c-1.4-1.4-2.17-3.26-2.17-5.24s.77-3.84,2.17-5.24c1.4-1.4,3.26-2.17,5.24-2.17s3.84.77,5.24,2.17l.07.07.07-.07c.71-.71,1.54-1.26,2.47-1.63.99-.4,2.07-.58,3.14-.53,1.84.09,3.57.86,4.87,2.16,1.55,1.55,2.33,3.7,2.14,5.89h0c-.15,1.73-.91,3.36-2.14,4.59l-10.55,10.55ZM21.98,8.59c-1.31,0-2.61.5-3.61,1.49-1.99,1.99-1.99,5.23,0,7.22l8.92,8.92,8.92-8.92c.85-.85,1.37-1.97,1.47-3.16.13-1.51-.41-2.99-1.47-4.06-.9-.9-2.09-1.43-3.36-1.49-.74-.04-1.48.09-2.16.36-.64.26-1.21.64-1.7,1.13l-1.7,1.7-1.7-1.7c-1-1-2.3-1.49-3.61-1.49ZM38.83,14.24h0,0Z"/>
          </g>
        </g>
      </g>
      <path class="cls-1" d="M131.7,4.74c0-3.5,5.2-3.5,5.2,0s-5.2,3.51-5.2,0ZM136.45,4.74c0-2.97-4.29-2.97-4.29,0s4.29,2.96,4.29,0ZM135.46,5.94v.06h-.41l-.65-.88h-.55v.88h-.39v-2.51h1.03c.5,0,.89.3.89.82,0,.38-.23.68-.59.75l.67.88ZM133.86,4.79h.61c.31,0,.53-.18.53-.48,0-.28-.22-.48-.53-.48h-.61v.97Z"/>
    </g>
  </g>
</svg>