<?xml version="1.0" encoding="UTF-8"?>
<svg id="Layer_2" data-name="Layer 2" xmlns="http://www.w3.org/2000/svg" viewBox="0 0 86.56 204.82">
  <defs>
    <style>
      .cls-1 {
        fill: #fff;
      }

      .cls-2 {
        fill: #ce86b9;
      }
    </style>
  </defs>
  <g id="Capa_2" data-name="Capa 2">
    <rect class="cls-2" x="0" y="0" width="86.56" height="204.82" rx="43.28" ry="43.28"/>
    <g>
      <g>
        <g>
          <path class="cls-1" d="M41.93,134.77h23.97l-.95-1.94h-20.59c1.02-2.42,3.41-4.12,6.2-4.12h12.38l-.95-1.94h-11.43c-3.57,0-6.64,2.17-7.97,5.26-1.33-3.09-4.4-5.26-7.97-5.26h-11.43l-.95,1.94h12.38c2.79,0,5.18,1.7,6.2,4.12h-20.59l-.95,1.94h22.63Z"/>
          <g>
            <g>
              <rect class="cls-1" x="41.21" y="107.43" width="19.31" height="1.97" transform="translate(-61.77 67.73) rotate(-45)"/>
              <rect class="cls-1" x="53.32" y="99.67" width="1.97" height="10.62" transform="translate(-58.32 69.15) rotate(-45)"/>
            </g>
            <path class="cls-1" d="M42.61,125.7l-9.01-9.01c-1.2-1.2-1.85-2.79-1.85-4.48s.66-3.28,1.85-4.48c1.2-1.2,2.79-1.85,4.48-1.85s3.28.66,4.48,1.85l.06.06.06-.06c.61-.61,1.32-1.08,2.11-1.4.84-.34,1.77-.5,2.68-.45,1.57.08,3.05.73,4.16,1.85,1.33,1.33,1.99,3.16,1.83,5.03h0c-.13,1.48-.78,2.87-1.83,3.92l-9.01,9.01ZM38.07,107.86c-1.12,0-2.23.42-3.08,1.27-1.7,1.7-1.7,4.46,0,6.16l7.62,7.62,7.62-7.62c.72-.72,1.17-1.68,1.26-2.7.11-1.29-.35-2.55-1.26-3.46-.77-.77-1.78-1.22-2.87-1.27-.63-.03-1.27.08-1.85.31-.54.22-1.03.54-1.45.96l-1.45,1.45-1.45-1.45c-.85-.85-1.97-1.27-3.08-1.27ZM52.46,112.68h0,0Z"/>
          </g>
        </g>
        <g>
          <path class="cls-1" d="M70.46,160.86H14.75c-.12,0-.21-.09-.21-.21s.09-.21.21-.21h55.72c.12,0,.21.09.21.21s-.09.21-.21.21Z"/>
          <g>
            <path class="cls-1" d="M26.54,139.54h.65v6.98h-1.82v-3.21l-1.48,1.55h-.21l-1.48-1.55v3.21h-1.82v-6.98h.65l2.77,3.01,2.76-3.01Z"/>
            <path class="cls-1" d="M28.62,144.22v-4.67h1.82v4.63c0,.58.51.83,1.02.83.49,0,1-.25,1-.83v-4.63h1.8v4.67c0,1.56-1.35,2.39-2.82,2.39s-2.84-.83-2.84-2.39Z"/>
            <path class="cls-1" d="M40.51,144.22c0,1.52-1.25,2.4-2.69,2.4s-2.64-.88-2.64-2.4v-.91h1.69v.88c0,.56.41.82.94.82s.88-.26.88-.82v-3.07h-1.02v-1.56h2.85v4.67Z"/>
            <path class="cls-1" d="M46.29,141.14h-2.53v.99h2.33v1.59h-2.33v1.13h2.62v1.66h-4.44v-6.96h4.35v1.58Z"/>
            <path class="cls-1" d="M53.54,146.25v.26h-1.93l-1.19-2.18h-.96v2.18h-1.82v-6.96c1.03,0,2.04,0,3.06,0,1.68,0,2.51,1.24,2.51,2.47,0,.8-.35,1.56-1.03,2.03l1.36,2.21ZM50.69,142.85c.51,0,.76-.44.76-.88s-.24-.85-.76-.85h-1.26v1.72h1.26Z"/>
            <path class="cls-1" d="M58.9,141.14h-2.53v.99h2.33v1.59h-2.33v1.13h2.62v1.66h-4.44v-6.96h4.35v1.58Z"/>
            <path class="cls-1" d="M61.62,144.38c0,.48.55.72,1.1.72.52,0,1.06-.24,1.06-.66,0-.67-.78-.7-1.28-.73-1.27-.08-2.55-.59-2.55-2.04s1.28-2.28,2.71-2.28c1.34,0,2.71.77,2.68,2.28h-1.7c0-.48-.46-.68-.95-.68-.41,0-.95.11-.95.64,0,.47.4.58,1.06.65,1.48.13,2.78.48,2.78,2.17,0,1.46-1.42,2.23-2.85,2.23s-2.89-.74-2.86-2.3h1.73Z"/>
            <path class="cls-1" d="M22.3,156.08h-1.64l-.27-.46c-.61.33-1.27.49-1.92.48-1.82-.03-3.49-1.34-3.49-3.58s1.44-3.62,3.57-3.62c1.78,0,3.56,1.21,3.56,3.62,0,.83-.19,1.5-.54,2.05l.73,1.24v.27ZM18.55,154.41c.87,0,1.74-.63,1.74-1.89s-.88-1.89-1.75-1.89-1.74.65-1.74,1.89.86,1.89,1.75,1.89Z"/>
            <path class="cls-1" d="M23.2,153.7v-4.67h1.82v4.63c0,.58.51.83,1.02.83.49,0,1-.25,1-.83v-4.63h1.8v4.67c0,1.56-1.35,2.39-2.82,2.39s-2.84-.83-2.84-2.39Z"/>
            <path class="cls-1" d="M34.63,150.62h-2.53v.99h2.33v1.59h-2.33v1.13h2.62v1.66h-4.44v-6.96h4.35v1.58Z"/>
            <path class="cls-1" d="M41.55,148.96c1.43,0,3,.78,3.27,2.64h-1.75c-.25-.72-.78-.99-1.52-.99-1.05,0-1.74.76-1.74,1.91,0,1,.68,1.89,1.74,1.89.76,0,1.35-.35,1.54-1.1h1.75c-.27,1.98-1.81,2.77-3.29,2.77-1.78,0-3.56-1.19-3.56-3.54s1.78-3.56,3.56-3.56Z"/>
            <path class="cls-1" d="M51.82,155.73v.26h-1.93l-1.19-2.18h-.96v2.18h-1.82v-6.96c1.03,0,2.04,0,3.06,0,1.68,0,2.51,1.24,2.51,2.47-.01.8-.35,1.56-1.03,2.03l1.36,2.21ZM48.97,152.33c.51,0,.76-.44.76-.88s-.24-.85-.76-.85h-1.26v1.72h1.26Z"/>
            <path class="cls-1" d="M57.18,150.62h-2.53v.99h2.33v1.59h-2.33v1.13h2.62v1.66h-4.44v-6.96h4.35v1.58Z"/>
            <path class="cls-1" d="M62.87,150.62h-2.53v.99h2.33v1.59h-2.33v1.13h2.62v1.66h-4.44v-6.96h4.35v1.58Z"/>
            <path class="cls-1" d="M66.03,152.41v3.59h-1.82v-6.99h.57l3.63,3.43v-3.4h1.82v6.98h-.54l-3.66-3.61Z"/>
          </g>
          <g>
            <path class="cls-1" d="M16.47,167.37l.57-.96.58-.93h.5v.07l-1.43,2.28v1.63h-.48v-1.63l-1.44-2.28v-.06h.52l.58.92.57.97h.02Z"/>
            <path class="cls-1" d="M22.57,165.47c1.21,0,1.93.89,1.93,1.98s-.72,1.99-1.93,1.99h-1.41v-3.97h1.41ZM22.56,169.01c.91,0,1.47-.66,1.47-1.55s-.56-1.55-1.47-1.55h-.92v3.1h.92Z"/>
            <path class="cls-1" d="M28.2,165.89h-1.83v1.3h1.77v.41h-1.77v1.41h1.9v.44h-2.37v-3.97h2.31v.41Z"/>
            <path class="cls-1" d="M32.25,168.11c0,.88-.65,1.39-1.49,1.39s-1.45-.53-1.45-1.39v-.41h.45v.41c0,.63.41.96,1,.96s1.02-.35,1.02-.96v-2.21h-.97v-.42h1.45v2.64Z"/>
            <path class="cls-1" d="M34.25,168.46l-.47.98h-.49v-.06l1.85-3.93h.22l1.83,3.93v.06h-.49l-.47-.98h-1.99ZM34.41,168.05h1.67l-.83-1.86-.83,1.86Z"/>
            <path class="cls-1" d="M38.78,166.44l.04,1.09v1.91h-.47v-3.98h.16l2.59,3.01-.05-1.14v-1.86h.48v3.98h-.15l-2.59-3.01Z"/>
            <path class="cls-1" d="M45.66,169.02h1.87v.43h-2.35v-3.97h.48v3.55Z"/>
            <path class="cls-1" d="M51.03,165.89h-1.83v1.3h1.77v.41h-1.77v1.41h1.9v.44h-2.37v-3.97h2.31v.41Z"/>
            <path class="cls-1" d="M54.21,165.42c.78,0,1.54.36,1.76,1.19h-.47c-.21-.57-.7-.76-1.3-.76-.92,0-1.5.7-1.5,1.61s.58,1.61,1.5,1.61c.82,0,1.4-.44,1.48-1.3h-1.41v-.4h1.85c.02.36-.02.71-.15,1.03-.3.73-.96,1.11-1.76,1.11-1.12,0-1.98-.82-1.98-2.05s.87-2.04,1.98-2.04Z"/>
            <path class="cls-1" d="M57.83,168.46l-.47.98h-.49v-.06l1.85-3.93h.22l1.83,3.93v.06h-.49l-.47-.98h-1.99ZM57.99,168.05h1.67l-.83-1.86-.83,1.86Z"/>
            <path class="cls-1" d="M63.33,165.47c1.21,0,1.93.89,1.93,1.98s-.72,1.99-1.93,1.99h-1.41v-3.97h1.41ZM63.32,169.01c.91,0,1.47-.66,1.47-1.55s-.56-1.55-1.47-1.55h-.92v3.1h.92Z"/>
            <path class="cls-1" d="M68.41,169.51c-1.12,0-2.01-.78-2.01-2.05s.9-2.05,2.01-2.05,2.01.79,2.01,2.05-.82,2.05-2.02,2.05ZM68.41,169.07c.87,0,1.54-.65,1.54-1.61s-.66-1.62-1.54-1.62-1.54.65-1.54,1.62.66,1.61,1.53,1.61Z"/>
          </g>
        </g>
      </g>
      <path class="cls-1" d="M67.47,141.67c0-3.06,4.55-3.06,4.55,0s-4.55,3.07-4.55,0ZM71.63,141.67c0-2.59-3.75-2.59-3.75,0s3.75,2.59,3.75,0ZM70.77,142.72v.05h-.36l-.57-.77h-.48v.77h-.34v-2.2h.9c.44,0,.78.26.78.72,0,.33-.2.6-.52.66l.58.77ZM69.36,141.72h.53c.27,0,.46-.16.46-.42,0-.25-.19-.42-.46-.42h-.53v.85Z"/>
    </g>
  </g>
</svg>